<svg xmlns="http://www.w3.org/2000/svg" width="1232.576" height="481.782" viewBox="0 0 1232.5765 481.78235"><path fill="#fff" d="M372.152 289.403l-29.846-84.28 269.127-95.305 29.846 84.28z"/><g fill="#6400ff"><path d="M388.232 215.653l36.677-12.987 2.854 8.062-26.934 9.537 3.212 9.072 23.966-8.487 2.815 7.952-23.965 8.486 6.523 18.422-9.743 3.45zM435.83 223.374c-4.44-12.543 1.96-25.964 16.687-31.18 14.728-5.215 28.036 1.227 32.48 13.77 4.44 12.543-1.85 25.925-16.576 31.14s-28.147-1.187-32.59-13.73zm10.247-3.628c3.213 9.07 11.793 11.766 19.408 9.07 7.392-2.618 12.475-10.152 9.262-19.223-3.213-9.072-11.852-11.936-19.354-9.28-7.615 2.7-12.53 10.36-9.316 19.433zM490.648 203.963c-4.44-12.544 1.96-25.965 16.687-31.18s28.036 1.227 32.478 13.77-1.848 25.924-16.574 31.14c-14.73 5.214-28.15-1.188-32.592-13.73zm10.247-3.63c3.212 9.072 11.793 11.768 19.407 9.07 7.393-2.617 12.475-10.15 9.263-19.222-3.213-9.07-11.852-11.935-19.355-9.277-7.615 2.697-12.528 10.36-9.315 19.43zM558.84 155.237c14.728-5.215 27.818.61 32.26 13.153 4.442 12.543-2.126 25.14-16.853 30.354l-19.262 6.82-15.406-43.507zm12.473 35.22c7.392-2.617 12.753-9.367 9.54-18.437-3.212-9.072-11.614-11.264-19.137-8.663l-9.595 3.335 9.618 27.157z"/></g><path fill="#fff" d="M163.597 272.16l20.546-76.684 238.72 63.962-20.546 76.684z"/><path d="M241.373 279.572l5.658-21.115-22.15 13.13-12.51-22.17-5.597 20.884-9.64-2.58 12.115-45.216 19.335 35.252 34.486-20.832-12.116 45.215zM264.59 261.994c3.445-12.854 16.322-20.29 31.413-16.244 15.09 4.043 22.41 16.89 18.965 29.742-3.444 12.853-16.206 20.318-31.296 16.275-15.09-4.043-22.525-16.92-19.08-29.773zm10.5 2.815c-2.49 9.294 3.054 16.374 10.858 18.466 7.574 2.03 16.03-1.3 18.52-10.596 2.492-9.297-3.006-16.55-10.694-18.61-7.805-2.09-16.192 1.442-18.683 10.74z" fill="#6400ff"/><g fill="#6400ff"><path d="M338.635 257.85l-11.946 44.582-9.928-2.658 11.946-44.584zM355.322 275.666c-2.43 9.064 29.67 10.225 25.058 27.438-2.368 8.838-13.268 10.96-23.022 8.346-19.796-5.305-20.522-21.182-20.522-21.182l9.813-1.736s.786 10.604 12.835 13.834c5.163 1.383 9.826.97 10.656-2.127 2.615-9.755-29.385-10.827-24.988-27.237 2.137-7.977 11.783-10.926 20.333-8.635 15.49 4.15 17.02 17.72 17.02 17.72l-9.625 2.65s-.312-8.94-9.893-11.507c-4.017-1.076-6.99-.09-7.665 2.436z"/></g><path fill="#fff" d="M450.43 301.216l22.613-84.398 241.752 64.775-22.614 84.398z"/><path d="M509.027 251.563l37.582 10.07-2.215 8.262-27.6-7.396-2.49 9.296 24.558 6.58-2.183 8.148-24.558-6.582-5.06 18.877-9.982-2.675zM561.927 265.736L549.98 310.32l-9.925-2.66L552 263.076zM571.164 268.21l9.927 2.66-9.73 36.32 26.106 6.997-2.214 8.262-36.034-9.657zM644.77 335.717l5.656-21.115-22.15 13.13-12.51-22.17-5.597 20.884-9.64-2.582 12.116-45.215 19.334 35.253 34.486-20.832-12.115 45.216z" fill="#6400ff"/><path fill="#fff" d="M619.24 150.676l-9.13-86.895 589.986-61.993 9.13 86.894z"/><g fill="#6400ff"><path d="M700.736 105.446s1.355 20.286-21.743 22.714c-15.716 1.652-26.913-7.147-28.366-20.97-1.452-13.825 7.908-24.784 22.795-26.35 19.732-2.073 23.635 13.466 23.635 13.466l-8.02 6.098s-1.893-11.746-14.83-10.387c-8.33.875-13.713 7.057-12.77 16.035.944 8.98 7.83 13.69 16.397 12.79 13.115-1.378 12.977-12.353 12.977-12.353zM706.157 101.354c-1.392-13.234 7.966-24.79 23.503-26.423 15.537-1.633 26.975 7.738 28.366 20.972 1.39 13.233-7.85 24.776-23.387 26.41-15.537 1.632-27.092-7.726-28.483-20.958zm10.81-1.137c1.007 9.57 8.72 14.195 16.754 13.35 7.8-.818 14.5-6.96 13.494-16.53-1.006-9.57-8.737-14.37-16.653-13.538-8.033.842-14.6 7.146-13.592 16.717zM768.342 117.932l-4.918-46.79 38.644 23.296-2.75-26.17 10.28-1.08 4.874 46.375-38.653-22.816 2.743 26.11zM819.225 66.174l38.695-4.066.894 8.507-28.416 2.987 1.006 9.57 25.285-2.658.88 8.39-25.284 2.657 2.043 19.437-10.28 1.08zM863.53 61.518l38.695-4.066.894 8.506-28.476 2.994 1.006 9.57 25.284-2.658.89 8.447-25.285 2.66 1.142 10.87 30.07-3.16.893 8.506-40.29 4.234zm27.95-6.284l-13.162 3.773-1.215-3.04 11.332-8.118zM916.618 102.348l-4.824-45.902 25.815-2.713c12.465-1.31 20.77 3.252 21.676 11.877.782 7.443-4.723 13.04-14.654 15.158 10.118-.346 15.72 15.43 20.252 16.507l-13.233 1.392c-4.644-1.006-7.405-17.62-20.815-16.21l-5.85.616 1.913 18.195zm7.54-27.73l15.418-1.62c5.73-.604 9.855-2.828 9.477-6.434-.38-3.604-4.878-4.922-10.55-4.326l-15.477 1.627zM966.792 50.664l38.694-4.066.894 8.507-28.475 2.993 1.006 9.57 25.285-2.658.89 8.448-25.285 2.657 1.143 10.87 30.07-3.16.893 8.507-40.29 4.234zM1019.88 91.494l-4.918-46.79L1053.606 68l-2.75-26.17 10.28-1.082 4.874 46.377-38.654-22.816 2.744 26.11zM1121.58 61.213s1.354 20.287-21.744 22.715c-15.715 1.652-26.913-7.147-28.366-20.97-1.452-13.825 7.908-24.784 22.795-26.35 19.732-2.073 23.635 13.466 23.635 13.466l-8.02 6.098s-1.893-11.747-14.83-10.387c-8.33.875-13.713 7.057-12.77 16.035.944 8.98 7.83 13.69 16.397 12.79 13.115-1.378 12.977-12.353 12.977-12.353zM1125.997 33.932l38.694-4.067.895 8.507-28.475 2.993 1.006 9.57 25.284-2.657.89 8.447-25.285 2.658 1.143 10.87 30.07-3.16.893 8.507-40.288 4.234z"/></g><path fill="#fff" d="M12.446 233.357L0 144.814l362.198-50.912 12.446 88.544z"/><g fill="#6400ff"><path d="M39.61 191.66c.97 6.88 3.885 10.55 9.885 9.708 6.176-.868 8.084-5.216 7.117-12.1l-3.704-26.35 10.177-1.432 3.704 26.353c1.867 13.294-2.988 20.994-15.99 22.82-12.764 1.795-19.378-4.294-21.247-17.59zM82.024 158.825L85.14 181c1.06 7.53 4.94 14.664 14.41 13.333 9.472-1.33 11.236-9.257 10.18-16.788l-3.118-22.176 10.236-1.44 3.116 22.177c1.96 13.94-1.753 25.08-19.106 27.52-17.354 2.438-23.993-7.246-25.953-21.188l-3.116-22.177z"/></g><path d="M138.228 163.942c1.307 9.295 31.307-2.18 33.787 15.468 1.273 9.06-7.932 15.27-17.932 16.677-20.295 2.853-27.168-11.48-27.168-11.48l8.354-5.432s4.867 9.453 17.22 7.717c5.295-.744 9.425-2.944 8.98-6.12-1.407-10-31.28 1.516-33.646-15.308-1.15-8.177 6.577-14.662 15.342-15.894 15.883-2.232 22.594 9.662 22.594 9.662l-7.827 6.198s-3.778-8.106-13.602-6.726c-4.117.58-6.466 2.65-6.102 5.238zM220.918 147.943l-19.647 2.76 5.234 37.236-10.235 1.437-5.234-37.235-19.646 2.762-1.19-8.47 49.53-6.962zM235.843 137.207l6.424 45.706-10.177 1.43-6.424-45.706z" fill="#6400ff"/><g fill="#6400ff"><path d="M296.85 155.566s2.062 20.227-20.938 23.46c-15.647 2.198-27.146-6.204-29.08-19.968-1.936-13.766 7.037-25.045 21.86-27.13 19.647-2.76 24.09 12.633 24.09 12.633l-7.802 6.375s-2.3-11.672-15.183-9.862c-8.294 1.166-13.458 7.53-12.2 16.472 1.256 8.942 8.302 13.41 16.83 12.21 13.06-1.835 12.54-12.8 12.54-12.8zM300.312 128.147l38.53-5.414 1.19 8.47-28.354 3.985 1.34 9.53 25.176-3.54 1.182 8.412-25.176 3.54 1.52 10.823 29.942-4.21 1.19 8.472-40.117 5.64z"/></g><path fill="#fff" d="M718.51 374.2l-55.052-70.454L959.38 72.528l55.05 70.455z"/><g fill="#6400ff"><path d="M725.074 321.482c4.278 5.475 8.638 7.195 13.412 3.466 4.915-3.84 4.394-8.56.115-14.035l-16.384-20.972 8.1-6.325 16.383 20.97c8.265 10.58 7.91 19.677-2.436 27.76-10.157 7.936-18.93 5.97-27.195-4.608zM745.387 271.84l13.787 17.647c4.682 5.99 11.61 10.228 19.146 4.34 7.535-5.888 5.102-13.636.42-19.627l-13.787-17.647 8.145-6.363 13.787 17.647c8.668 11.094 11.02 22.598-2.787 33.386-13.81 10.79-24.402 5.723-33.07-5.37l-13.786-17.648z"/></g><path d="M796.62 248.17c5.778 7.395 26.02-17.54 36.993-3.5 5.632 7.21.768 17.19-7.19 23.41-16.15 12.617-29.268 3.643-29.268 3.643l4.52-8.883s8.94 5.754 18.77-1.927c4.213-3.29 6.69-7.263 4.717-9.79-6.218-7.957-26.332 16.953-36.79 3.566-5.085-6.508-1.636-15.987 5.34-21.437 12.638-9.874 24.396-2.928 24.396-2.928l-3.68 9.28s-7.325-5.13-15.142.978c-3.276 2.56-4.275 5.526-2.667 7.586zM860.232 192.97L844.6 205.182l23.148 29.63-8.146 6.365-23.15-29.63-15.634 12.214-5.267-6.74 39.415-30.793zM867.79 176.21l28.416 36.37-8.098 6.326-28.416-36.37z" fill="#6400ff"/><g fill="#6400ff"><path d="M929.802 161.606s11.9 16.484-6.402 30.783c-12.45 9.728-26.61 8.2-35.168-2.753-8.56-10.953-6.428-25.207 5.368-34.424 15.636-12.215 27.18-1.105 27.18-1.105l-3.57 9.422s-7.83-8.96-18.08-.95c-6.6 5.156-7.89 13.25-2.332 20.366 5.56 7.114 13.896 7.46 20.684 2.158 10.392-8.12 4.458-17.354 4.458-17.354zM919.09 136.128l30.66-23.954 5.268 6.74-22.562 17.627 5.925 7.584 20.035-15.652 5.23 6.694-20.036 15.652 6.73 8.613 23.825-18.614 5.266 6.74-31.923 24.94z"/></g><path fill="#fff" d="M89.473 511.782l-29.845-84.28 344.75-122.085 29.845 84.28z"/><path d="M87.723 430.356l11.31-4.006 25.195 22.21 5.603-33.115 11.313-4.006-11.005 53.805zM145.954 409.734l36.677-12.987 2.856 8.062-26.99 9.557 3.213 9.07 23.965-8.486 2.836 8.01-23.966 8.485 3.65 10.304 28.5-10.094 2.856 8.062-38.19 13.523zm25.712-12.634l-11.918 6.74-1.89-2.67 9.12-10.54z" fill="#6400ff"/><g fill="#6400ff"><path d="M218.855 409l24.86-8.805 7.517 21.222-8.567 3.034-3.55-10.022c-.045.583-.484 12.334-13.25 16.855-10.527 3.728-23.58-.032-28.895-15.038-4.64-13.104 1.903-25.944 16.238-31.02 18.366-6.505 25.9 7.653 25.9 7.653l-6.374 7.802s-4.75-10.92-16.62-6.718c-8.287 2.936-11.91 10.143-8.897 18.654 3.213 9.07 11.4 11.905 18.68 9.327 8.455-2.994 9.252-9.642 9.252-9.642l-13.44 4.76zM255.822 419.792l11.005-53.807 42.414 34.89-11.31 4.006-6.15-5.446-23.295 8.25-1.353 8.103zm14.343-21.778l14.223-5.037-11.652-10.305z"/></g><g fill="#6400ff"><path d="M314.28 399.092l-15.705-44.35 43.015 13.63-8.784-24.804 9.744-3.45 15.566 43.955-42.914-13.16 8.765 24.75zM351.673 336.887L388.35 323.9l2.855 8.06-26.99 9.56 3.213 9.07 23.966-8.486 2.835 8.007-23.967 8.488 3.65 10.303 28.5-10.09 2.855 8.06-38.188 13.524z"/></g><path fill="#fff" d="M857.09 383.507l14.753-88.187 360.733 60.348-14.753 88.187z"/><path d="M888.28 323.723l11.833 1.98 11.27 31.64 20.953-26.247 11.836 1.98-35.71 41.724zM949.206 333.916l38.375 6.422-1.41 8.438-28.24-4.727-1.587 9.49 25.074 4.196-1.4 8.38-25.076-4.198-1.804 10.78 29.82 4.99-1.41 8.437-39.957-6.686zm28.614 1.416l-13.692.117-.358-3.253 13.09-4.797z" fill="#6400ff"/><g fill="#6400ff"><path d="M1013.323 368.617l26.014 4.354-3.715 22.204-8.965-1.5 1.754-10.486c-.32.488-6.402 10.553-19.76 8.318-11.015-1.844-20.606-11.46-17.98-27.162 2.295-13.71 14.243-21.768 29.24-19.258 19.22 3.215 18.943 19.252 18.943 19.252l-9.357 3.732s1.142-11.854-11.28-13.934c-8.672-1.45-15.334 3.096-16.824 12.002-1.588 9.49 4.2 15.94 11.814 17.215 8.847 1.48 12.768-3.947 12.768-3.947l-14.062-2.354zM1040.42 395.98l35.713-41.726 20.18 51.076-11.833-1.98-2.738-7.745-24.373-4.08-5.112 6.434zm23.106-12.095l14.882 2.49-5.196-14.662z"/></g><g fill="#6400ff"><path d="M1101.586 406.215l7.765-46.402 31.015 32.775 4.344-25.955 10.194 1.707-7.697 45.992-31.15-32.316-4.334 25.895zM1164.45 369.938l38.373 6.42-1.412 8.438-28.237-4.727-1.588 9.49 25.074 4.196-1.402 8.38-25.074-4.198-1.804 10.78 29.82 4.99-1.412 8.437-39.956-6.686z"/></g><path fill="#fff" d="M633.05 465.703l-35.187-79.975 567.02-249.468 35.185 79.975z"/><path d="M648.825 440.01l6.94-54.11 44.585 31.438-10.91 4.8-6.494-4.94-22.468 9.885-.742 8.127zm12.607-22.63l13.718-6.037-12.3-9.35z" fill="#6400ff"/><g fill="#6400ff"><path d="M705.206 415.2l-18.82-42.773 43.612 10.335-10.527-23.927 9.397-4.135 18.655 42.397-43.477-9.88 10.504 23.872zM783.323 340.023l-18.04 7.938 15.044 34.188-9.398 4.136-15.044-34.188-18.04 7.938-3.42-7.778 45.475-20.01z"/></g><g fill="#6400ff"><path d="M794.694 325.736L813.16 367.7l-9.344 4.112-18.465-41.965zM818.697 329.164c3.754 8.533 29.342-10.525 36.472 5.676 3.66 8.318-3.467 16.738-12.648 20.78-18.632 8.196-29.066-3.65-29.066-3.65l6.52-7.446s7.204 7.725 18.546 2.734c4.86-2.14 8.215-5.354 6.932-8.27-4.04-9.183-29.494 9.884-36.29-5.563-3.304-7.507 2.335-15.79 10.38-19.33 14.584-6.416 24.206 3.145 24.206 3.145l-5.81 8.037s-5.8-6.732-14.82-2.764c-3.78 1.663-5.468 4.274-4.423 6.65zM869.238 323.17l7.32 16.635-9.397 4.135-18.465-41.965 23.602-10.385c11.396-5.014 20.635-3.212 24.104 4.673 3.376 7.67-1.507 15.62-12.957 20.657zm-3.343-7.746l14.096-6.203c5.24-2.304 8.47-5.66 7.02-8.954-1.448-3.294-6.104-3.18-11.29-.898l-14.15 6.227z"/></g><g fill="#6400ff"><path d="M895.248 281.492l35.376-15.566 3.422 7.777-26.032 11.455 3.85 8.75 23.115-10.172 3.397 7.724-23.115 10.17 4.372 9.94 27.49-12.098 3.423 7.777-36.834 16.207zm24.54-14.407l-11.31 7.554-2.07-2.507 8.262-11.112zM993.138 267.365s7.426 18.78-13.69 28.07c-14.368 6.322-27.626 1.39-33.187-11.248-5.56-12.64-.023-25.84 13.587-31.828 18.04-7.94 26.436 5.58 26.436 5.58l-5.74 8.196s-5.346-10.54-17.174-5.335c-7.616 3.352-10.837 10.83-7.226 19.038 3.612 8.21 11.554 10.58 19.385 7.136 11.99-5.276 8.535-15.617 8.535-15.617z"/></g><g fill="#6400ff"><path d="M998.45 236.082l18.465 41.965-9.344 4.11-18.464-41.964zM1022.453 239.51c3.755 8.532 29.34-10.527 36.47 5.676 3.66 8.318-3.464 16.738-12.645 20.78-18.633 8.197-29.066-3.65-29.066-3.65l6.52-7.446s7.203 7.725 18.545 2.734c4.86-2.14 8.215-5.354 6.932-8.27-4.04-9.183-29.495 9.883-36.292-5.563-3.303-7.506 2.336-15.79 10.383-19.33 14.583-6.416 24.206 3.146 24.206 3.146l-5.812 8.036s-5.8-6.73-14.817-2.763c-3.782 1.66-5.47 4.272-4.424 6.65zM1112.557 235.963l-8.745-19.875-8.998 23.943-23.475-9.397 8.65 19.66-9.074 3.992-18.727-42.56 36.896 15.29 13.764-37.58 18.727 42.56z"/></g><path d="M1111.964 186.135l35.375-15.565 3.42 7.777-26.03 11.454 3.85 8.75 23.114-10.17 3.4 7.723-23.116 10.17 4.372 9.94 27.49-12.097 3.423 7.777-36.834 16.207z" fill="#6400ff"/><path fill="#fff" d="M3.517 72.18L17.934-14 635 89.23l-14.418 86.18z"/><path d="M33.866 59.875L69.34 18.43l20.045 50.736L77.63 67.2l-2.722-7.694-24.21-4.053-5.077 6.39zm22.95-12.014l14.78 2.476-5.16-14.564z" fill="#6400ff"/><g fill="#6400ff"><path d="M94.618 70.04l7.713-46.09 30.807 32.556 4.314-25.78 10.127 1.694-7.645 45.684-30.942-32.1-4.305 25.723zM201.166 50.002l-19.438-3.254-6.165 36.84-10.126-1.695 6.165-36.838-19.438-3.254 1.402-8.378 49 8.2z"/></g><g fill="#6400ff"><path d="M218.51 44.29l-7.568 45.218-10.068-1.686 7.567-45.22zM236.704 60.316c-1.54 9.195 30.31 7.285 27.388 24.744-1.5 8.963-12.075 12.098-21.97 10.44-20.077-3.358-22.308-18.985-22.308-18.985l9.537-2.652s1.79 10.41 14.01 12.455c5.238.875 9.807.025 10.333-3.117 1.655-9.892-30.086-7.905-27.3-24.55 1.353-8.09 10.61-11.924 19.28-10.473 15.714 2.63 18.518 15.9 18.518 15.9l-9.266 3.535s-1.158-8.81-10.877-10.436c-4.07-.68-6.914.58-7.343 3.14zM282.257 83.016l-3 17.924-10.127-1.693 7.567-45.22 25.433 4.257c12.28 2.055 19.017 8.625 17.595 17.123-1.383 8.264-9.825 12.234-22.162 10.17zm1.45-8.313l15.19 2.54c5.644.946 10.185-.09 10.78-3.64.593-3.55-3.363-6.006-8.95-6.94L285.48 64.11z"/></g><g fill="#6400ff"><path d="M326.86 62.42l38.12 6.38-1.402 8.38-28.05-4.695-1.58 9.428 24.91 4.17-1.394 8.322-24.907-4.168-1.792 10.707 29.623 4.957-1.403 8.382-39.69-6.643zm28.422 1.406l-13.6.117-.357-3.23 13.002-4.764zM416.47 104.277s-4.086 19.777-26.84 15.97c-15.482-2.59-23.865-13.985-21.586-27.603 2.28-13.617 14.147-21.623 28.813-19.17 19.438 3.254 19.05 19.162 19.05 19.162l-9.296 3.71s1.31-11.747-11.437-13.88c-8.205-1.373-15 3.113-16.48 11.96-1.48 8.845 3.86 15.183 12.3 16.595 12.92 2.163 15.7-8.378 15.7-8.378z"/></g><g fill="#6400ff"><path d="M438.064 81.03l-7.567 45.218-10.067-1.684 7.567-45.22zM456.258 97.057c-1.54 9.195 30.31 7.285 27.39 24.746-1.5 8.96-12.077 12.098-21.97 10.44-20.08-3.358-22.31-18.987-22.31-18.987l9.538-2.652s1.788 10.41 14.01 12.455c5.236.876 9.806.024 10.332-3.118 1.656-9.893-30.085-7.906-27.3-24.55 1.354-8.09 10.61-11.925 19.28-10.474 15.714 2.63 18.52 15.902 18.52 15.902l-9.266 3.533s-1.16-8.81-10.877-10.436c-4.075-.68-6.92.58-7.347 3.14zM533.555 143.494l3.583-21.416-20.653 15.09-14.478-20.73-3.545 21.186-9.777-1.637 7.674-45.86 22.472 33.017 32.116-23.88-7.674 45.858z"/></g><path d="M560.38 101.498l38.12 6.38-1.403 8.38-28.05-4.693-1.58 9.426 24.91 4.17-1.394 8.323-24.908-4.168-1.792 10.707 29.622 4.957-1.402 8.38-39.69-6.643z" fill="#6400ff"/></svg>