<?xml version="1.0" encoding="utf-8"?>
<!-- Generator: Adobe Illustrator 16.0.0, SVG Export Plug-In . SVG Version: 6.00 Build 0)  -->
<!DOCTYPE svg PUBLIC "-//W3C//DTD SVG 1.1//EN" "http://www.w3.org/Graphics/SVG/1.1/DTD/svg11.dtd">
<svg version="1.1" id="Calque_1" xmlns="http://www.w3.org/2000/svg" xmlns:xlink="http://www.w3.org/1999/xlink" x="0px" y="0px"
	 width="1200px" height="450px" viewBox="0 0 1200 450" enable-background="new 0 0 1200 450" xml:space="preserve">
<g>
	<polygon fill="#FFFFFF" points="1200,9.409 642.436,68.012 651.569,154.908 1200,97.268 	"/>
	<g>
		<path fill="#6400FF" d="M733.102,109.696c0,0,1.355,20.286-21.743,22.714c-15.716,1.652-26.913-7.147-28.366-20.971
			c-1.452-13.824,7.908-24.783,22.795-26.348c19.732-2.074,23.635,13.465,23.635,13.465l-8.021,6.098
			c0,0-1.892-11.746-14.829-10.387c-8.33,0.875-13.713,7.057-12.77,16.035c0.944,8.979,7.831,13.691,16.397,12.791
			c13.115-1.379,12.977-12.354,12.977-12.354L733.102,109.696z"/>
		<path fill="#6400FF" d="M738.523,105.604c-1.392-13.234,7.966-24.79,23.503-26.423c15.537-1.634,26.975,7.737,28.366,20.971
			c1.391,13.233-7.85,24.776-23.387,26.41C751.469,128.194,739.914,118.836,738.523,105.604z M749.334,104.467
			c1.006,9.57,8.719,14.195,16.753,13.351c7.799-0.819,14.5-6.96,13.493-16.53c-1.006-9.57-8.737-14.371-16.653-13.539
			C754.893,88.592,748.327,94.896,749.334,104.467z"/>
		<path fill="#6400FF" d="M800.708,122.182l-4.918-46.789l38.644,23.295l-2.75-26.17l10.28-1.081l4.874,46.376l-38.653-22.816
			l2.744,26.111L800.708,122.182z"/>
		<path fill="#6400FF" d="M851.591,70.424l38.695-4.066l0.894,8.507l-28.416,2.987l1.006,9.57l25.285-2.658l0.882,8.39
			l-25.285,2.657l2.043,19.436l-10.279,1.08L851.591,70.424z"/>
		<path fill="#6400FF" d="M895.896,65.768l38.695-4.066l0.894,8.506l-28.475,2.994l1.006,9.57l25.284-2.658l0.889,8.447
			l-25.284,2.658l1.143,10.871l30.069-3.161l0.894,8.507l-40.29,4.234L895.896,65.768z M923.847,59.484l-13.163,3.773l-1.215-3.039
			l11.332-8.119L923.847,59.484z"/>
		<path fill="#6400FF" d="M948.984,106.598l-4.824-45.902l25.815-2.713c12.466-1.311,20.77,3.252,21.677,11.877
			c0.782,7.443-4.723,13.039-14.654,15.158c10.118-0.346,15.719,15.43,20.252,16.507l-13.233,1.392
			c-4.645-1.006-7.406-17.619-20.816-16.209l-5.849,0.615l1.912,18.195L948.984,106.598z M956.523,78.867l15.419-1.62
			c5.729-0.603,9.855-2.827,9.477-6.433c-0.379-3.604-4.878-4.922-10.55-4.326l-15.477,1.627L956.523,78.867z"/>
		<path fill="#6400FF" d="M999.158,54.914l38.694-4.066l0.894,8.507l-28.475,2.993l1.006,9.57l25.284-2.658l0.889,8.448
			l-25.284,2.657l1.143,10.871l30.069-3.16l0.894,8.506l-40.289,4.234L999.158,54.914z"/>
		<path fill="#6400FF" d="M1052.246,95.744l-4.918-46.789l38.644,23.295l-2.75-26.171l10.28-1.081l4.874,46.377l-38.654-22.816
			l2.744,26.111L1052.246,95.744z"/>
		<path fill="#6400FF" d="M1153.945,65.463c0,0,1.355,20.287-21.743,22.715c-15.715,1.652-26.913-7.147-28.366-20.971
			c-1.452-13.824,7.908-24.783,22.795-26.348c19.732-2.074,23.635,13.465,23.635,13.465l-8.02,6.098c0,0-1.893-11.747-14.83-10.387
			c-8.33,0.875-13.713,7.057-12.77,16.035c0.944,8.979,7.831,13.691,16.397,12.791c13.115-1.379,12.977-12.354,12.977-12.354
			L1153.945,65.463z"/>
		<polygon fill="#6400FF" points="1200,71.613 1172.514,74.503 1171.371,63.633 1196.655,60.975 1195.767,52.527 1170.482,55.185 
			1169.477,45.614 1197.951,42.621 1197.058,34.114 1158.363,38.182 1163.188,84.084 1200,80.215 		"/>
	</g>
</g>
<g>
	<polygon fill="#FFFFFF" points="1200,349.088 904.257,299.598 889.5,387.783 1200,439.743 	"/>
	<polygon fill="#6400FF" points="1200,374.721 1196.816,374.188 1189.198,419.709 1200,421.517 	"/>
	<g>
		<path fill="#6400FF" d="M920.645,327.973l11.834,1.98l11.27,31.639l20.953-26.246l11.836,1.979l-35.711,41.725L920.645,327.973z"
			/>
	</g>
	<g>
		<path fill="#6400FF" d="M981.572,338.166l38.375,6.422l-1.411,8.438l-28.239-4.727l-1.588,9.492l25.074,4.195l-1.401,8.379
			l-25.075-4.197l-1.805,10.781l29.82,4.99l-1.411,8.436l-39.956-6.686L981.572,338.166z M1010.186,339.582l-13.692,0.117
			l-0.358-3.252l13.089-4.797L1010.186,339.582z"/>
	</g>
	<path fill="#6400FF" d="M1133.952,410.465l7.765-46.402l31.014,32.775l4.344-25.955l10.195,1.707l-7.697,45.992l-31.151-32.316
		l-4.333,25.895L1133.952,410.465z"/>
	<g>
		<path fill="#6400FF" d="M1045.689,372.867l26.014,4.354l-3.715,22.203l-8.965-1.5l1.754-10.486
			c-0.322,0.488-6.403,10.553-19.761,8.318c-11.015-1.844-20.606-11.461-17.979-27.162c2.294-13.709,14.242-21.768,29.24-19.258
			c19.218,3.215,18.942,19.252,18.942,19.252l-9.357,3.732c0,0,1.142-11.854-11.28-13.934c-8.672-1.451-15.334,3.096-16.824,12.002
			c-1.588,9.49,4.199,15.939,11.814,17.215c8.847,1.48,12.768-3.947,12.768-3.947l-14.062-2.354L1045.689,372.867z"/>
		<path fill="#6400FF" d="M1072.787,400.229l35.712-41.725l20.181,51.076l-11.834-1.979l-2.738-7.746l-24.373-4.08l-5.111,6.434
			L1072.787,400.229z M1095.892,388.135l14.882,2.49l-5.196-14.662L1095.892,388.135z"/>
	</g>
</g>
<rect x="479.463" y="61.077" transform="matrix(-0.3338 -0.9426 0.9426 -0.3338 506.9937 765.9798)" fill="#FFFFFF" width="89.412" height="285.516"/>
<g>
	<path fill="#6400FF" d="M420.598,219.903l36.677-12.987l2.855,8.062l-26.934,9.537l3.212,9.072l23.966-8.487l2.815,7.952
		l-23.965,8.486l6.523,18.422l-9.744,3.45L420.598,219.903z"/>
	<path fill="#6400FF" d="M468.197,227.624c-4.442-12.543,1.959-25.964,16.686-31.18c14.728-5.215,28.036,1.227,32.479,13.771
		c4.441,12.542-1.848,25.924-16.575,31.139S472.639,240.167,468.197,227.624z M478.443,223.996
		c3.213,9.07,11.793,11.766,19.408,9.069c7.392-2.617,12.475-10.151,9.262-19.222c-3.213-9.072-11.852-11.936-19.354-9.279
		C480.144,207.262,475.23,214.924,478.443,223.996z"/>
	<path fill="#6400FF" d="M523.014,208.213c-4.441-12.544,1.959-25.965,16.687-31.18c14.727-5.215,28.036,1.227,32.478,13.77
		s-1.848,25.924-16.574,31.14C540.876,227.157,527.455,220.755,523.014,208.213z M533.261,204.584
		c3.212,9.071,11.793,11.767,19.407,9.07c7.393-2.618,12.475-10.152,9.263-19.223c-3.213-9.072-11.852-11.936-19.355-9.278
		C534.961,187.85,530.048,195.512,533.261,204.584z"/>
	<path fill="#6400FF" d="M591.206,159.487c14.728-5.215,27.818,0.61,32.26,13.153s-2.126,25.14-16.853,30.354l-19.262,6.821
		l-15.406-43.508L591.206,159.487z M603.679,194.708c7.392-2.618,12.753-9.368,9.541-18.438
		c-3.213-9.072-11.615-11.264-19.138-8.663l-9.595,3.335l9.617,27.157L603.679,194.708z"/>
</g>
<rect x="285.918" y="146.475" transform="matrix(0.2588 -0.9659 0.9659 0.2588 -19.5103 514.6711)" fill="#FFFFFF" width="79.391" height="247.148"/>
<g>
	<path fill="#6400FF" d="M273.739,283.822l5.658-21.115l-22.152,13.129l-12.509-22.17l-5.597,20.885l-9.64-2.582l12.115-45.215
		l19.335,35.252l34.486-20.832l-12.115,45.215L273.739,283.822z"/>
</g>
<g>
	<path fill="#6400FF" d="M296.957,266.244c3.444-12.854,16.321-20.289,31.412-16.244c15.09,4.043,22.409,16.889,18.965,29.742
		s-16.206,20.318-31.296,16.275S293.513,279.096,296.957,266.244z M307.457,269.059c-2.491,9.295,3.053,16.375,10.857,18.467
		c7.574,2.029,16.03-1.301,18.521-10.596c2.491-9.297-3.007-16.549-10.695-18.609C318.335,256.229,309.948,259.762,307.457,269.059z
		"/>
</g>
<g>
	<path fill="#6400FF" d="M371.001,262.1l-11.946,44.582l-9.927-2.658l11.946-44.584L371.001,262.1z"/>
	<path fill="#6400FF" d="M387.688,279.916c-2.43,9.064,29.67,10.225,25.058,27.438c-2.368,8.838-13.268,10.959-23.022,8.346
		c-19.796-5.305-20.522-21.182-20.522-21.182l9.813-1.736c0,0,0.787,10.604,12.836,13.834c5.163,1.383,9.826,0.971,10.656-2.127
		c2.614-9.754-29.386-10.826-24.989-27.236c2.137-7.977,11.783-10.926,20.333-8.635c15.491,4.15,17.021,17.721,17.021,17.721
		l-9.626,2.648c0,0-0.312-8.939-9.893-11.506C391.336,276.404,388.364,277.391,387.688,279.916z"/>
</g>
<rect x="571.311" y="170.503" transform="matrix(0.2588 -0.9659 0.9659 0.2588 170.2534 813.1702)" fill="#FFFFFF" width="87.378" height="250.286"/>
<g>
	<path fill="#6400FF" d="M541.393,255.812l37.582,10.07l-2.214,8.262l-27.599-7.396l-2.491,9.297l24.558,6.58l-2.183,8.148
		l-24.558-6.582l-5.059,18.877l-9.983-2.674L541.393,255.812z"/>
</g>
<g>
	<path fill="#6400FF" d="M594.293,269.986l-11.946,44.584l-9.926-2.66l11.946-44.584L594.293,269.986z"/>
</g>
<g>
	<path fill="#6400FF" d="M603.53,272.461l9.927,2.66l-9.732,36.32l26.107,6.996l-2.214,8.262l-36.034-9.656L603.53,272.461z"/>
</g>
<g>
	<path fill="#6400FF" d="M677.135,339.967l5.657-21.115l-22.151,13.129l-12.509-22.17l-5.597,20.885l-9.639-2.582l12.116-45.215
		l19.334,35.254l34.486-20.832l-12.115,45.215L677.135,339.967z"/>
</g>
<rect x="174.98" y="-14.979" transform="matrix(-0.1392 -0.9903 0.9903 -0.1392 84.0018 408.8082)" fill="#FFFFFF" width="89.411" height="365.745"/>
<g>
	<path fill="#6400FF" d="M71.977,195.909c0.968,6.882,3.884,10.552,9.884,9.709c6.176-0.868,8.084-5.216,7.117-12.099l-3.704-26.352
		l10.177-1.431l3.704,26.353c1.868,13.295-2.987,20.995-15.988,22.822c-12.765,1.794-19.379-4.295-21.248-17.59L71.977,195.909z"/>
	<path fill="#6400FF" d="M114.39,163.075l3.116,22.176c1.059,7.53,4.94,14.663,14.411,13.332s11.235-9.257,10.178-16.788
		l-3.117-22.176l10.236-1.438l3.116,22.176c1.96,13.941-1.753,25.08-19.106,27.52c-17.354,2.438-23.993-7.246-25.953-21.188
		l-3.116-22.176L114.39,163.075z"/>
</g>
<g>
	<path fill="#6400FF" d="M170.594,168.192c1.307,9.295,31.307-2.181,33.787,15.468c1.273,9.059-7.932,15.271-17.932,16.677
		c-20.295,2.853-27.168-11.479-27.168-11.479l8.354-5.433c0,0,4.868,9.453,17.222,7.717c5.294-0.744,9.424-2.944,8.978-6.12
		c-1.406-10-31.28,1.516-33.645-15.308c-1.149-8.177,6.577-14.662,15.342-15.894c15.883-2.232,22.594,9.662,22.594,9.662
		l-7.827,6.198c0,0-3.778-8.106-13.602-6.726C172.579,163.535,170.23,165.604,170.594,168.192z"/>
</g>
<g>
	<path fill="#6400FF" d="M253.284,152.193l-19.647,2.761l5.233,37.235l-10.235,1.438l-5.233-37.235l-19.646,2.762l-1.19-8.471
		l49.529-6.961L253.284,152.193z"/>
</g>
<g>
	<path fill="#6400FF" d="M268.209,141.457l6.424,45.706l-10.177,1.431l-6.424-45.707L268.209,141.457z"/>
</g>
<g>
	<path fill="#6400FF" d="M329.215,159.816c0,0,2.063,20.227-20.937,23.459c-15.647,2.199-27.146-6.203-29.081-19.967
		c-1.935-13.766,7.038-25.045,21.862-27.129c19.646-2.762,24.09,12.632,24.09,12.632l-7.803,6.374c0,0-2.3-11.672-15.183-9.862
		c-8.294,1.166-13.458,7.53-12.201,16.472s8.303,13.41,16.832,12.211c13.06-1.836,12.538-12.801,12.538-12.801L329.215,159.816z"/>
	<path fill="#6400FF" d="M332.678,132.396l38.529-5.414l1.19,8.471l-28.353,3.984l1.339,9.529l25.177-3.539l1.182,8.412
		l-25.176,3.539l1.521,10.824l29.941-4.209l1.19,8.471l-40.117,5.639L332.678,132.396z"/>
</g>
<rect x="826.646" y="39.847" transform="matrix(-0.6157 -0.788 0.788 -0.6157 1228.4437 1054.3838)" fill="#FFFFFF" width="89.411" height="375.536"/>
<g>
	<path fill="#6400FF" d="M757.44,325.732c4.278,5.475,8.638,7.195,13.412,3.466c4.915-3.84,4.394-8.56,0.115-14.035l-16.385-20.972
		l8.099-6.326l16.384,20.971c8.266,10.578,7.91,19.676-2.435,27.759c-10.157,7.936-18.931,5.97-27.195-4.608L757.44,325.732z"/>
	<path fill="#6400FF" d="M777.753,276.09l13.787,17.647c4.682,5.991,11.609,10.228,19.146,4.339
		c7.535-5.887,5.102-13.635,0.42-19.626l-13.787-17.647l8.145-6.363l13.787,17.647c8.668,11.094,11.021,22.598-2.787,33.386
		c-13.809,10.789-24.402,5.723-33.069-5.371l-13.787-17.647L777.753,276.09z"/>
</g>
<g>
	<path fill="#6400FF" d="M828.985,252.419c5.779,7.396,26.021-17.54,36.994-3.498c5.632,7.209,0.768,17.19-7.191,23.409
		c-16.148,12.617-29.267,3.643-29.267,3.643l4.519-8.883c0,0,8.942,5.754,18.772-1.927c4.212-3.291,6.689-7.263,4.716-9.79
		c-6.218-7.957-26.332,16.953-36.791,3.566c-5.084-6.507-1.635-15.986,5.34-21.436c12.639-9.874,24.397-2.928,24.397-2.928
		l-3.679,9.281c0,0-7.326-5.131-15.143,0.977C828.376,247.394,827.377,250.359,828.985,252.419z"/>
</g>
<g>
	<path fill="#6400FF" d="M892.598,197.219l-15.633,12.214l23.149,29.631l-8.146,6.364l-23.149-29.631l-15.635,12.215l-5.267-6.74
		l39.414-30.793L892.598,197.219z"/>
</g>
<g>
	<path fill="#6400FF" d="M900.156,180.459l28.416,36.37l-8.098,6.327l-28.416-36.371L900.156,180.459z"/>
</g>
<g>
	<path fill="#6400FF" d="M962.168,165.855c0,0,11.9,16.484-6.402,30.783c-12.451,9.729-26.611,8.201-35.168-2.752
		c-8.559-10.953-6.428-25.207,5.368-34.424c15.636-12.215,27.179-1.105,27.179-1.105l-3.57,9.422c0,0-7.828-8.959-18.079-0.951
		c-6.601,5.157-7.891,13.252-2.332,20.367c5.559,7.114,13.896,7.461,20.684,2.158c10.392-8.119,4.458-17.354,4.458-17.354
		L962.168,165.855z"/>
	<path fill="#6400FF" d="M951.457,140.378l30.66-23.954l5.267,6.74l-22.562,17.627l5.925,7.583l20.034-15.652l5.229,6.694
		l-20.035,15.652l6.73,8.613l23.826-18.615l5.266,6.74l-31.924,24.941L951.457,140.378z"/>
</g>
<polygon fill="#FFFFFF" points="268.739,450 466.611,379.93 436.767,295.646 92,417.734 103.426,450 "/>
<polygon fill="#FFFFFF" points="108.597,0 48.689,0 35.9,76.426 652.956,179.686 667.378,93.508 "/>
<g>
	<g>
		<path fill="#6400FF" d="M66.232,64.125l35.473-41.445l20.046,50.736l-11.756-1.967l-2.721-7.693l-24.209-4.053l-5.078,6.391
			L66.232,64.125z M89.182,52.111l14.781,2.475l-5.16-14.564L89.182,52.111z"/>
	</g>
	<g>
		<path fill="#6400FF" d="M126.984,74.291l7.713-46.09l30.806,32.555l4.314-25.781l10.126,1.695l-7.645,45.684l-30.942-32.1
			l-4.305,25.723L126.984,74.291z"/>
		<path fill="#6400FF" d="M233.532,54.252l-19.438-3.254l-6.165,36.84l-10.126-1.695l6.165-36.838l-19.438-3.254l1.402-8.379
			l49.001,8.199L233.532,54.252z"/>
	</g>
	<g>
		<path fill="#6400FF" d="M250.875,48.539l-7.567,45.219l-10.068-1.686l7.567-45.219L250.875,48.539z"/>
		<path fill="#6400FF" d="M269.07,64.566c-1.539,9.195,30.31,7.285,27.388,24.744c-1.5,8.963-12.075,12.098-21.969,10.441
			c-20.078-3.359-22.309-18.986-22.309-18.986l9.537-2.652c0,0,1.788,10.41,14.009,12.455c5.238,0.875,9.807,0.025,10.333-3.117
			c1.655-9.893-30.086-7.906-27.301-24.551c1.354-8.09,10.61-11.924,19.282-10.473c15.713,2.629,18.517,15.9,18.517,15.9
			l-9.267,3.535c0,0-1.158-8.809-10.877-10.436C272.342,60.746,269.499,62.006,269.07,64.566z"/>
		<path fill="#6400FF" d="M314.623,87.266l-3,17.924l-10.127-1.693l7.567-45.219l25.433,4.256
			c12.279,2.055,19.017,8.625,17.595,17.123c-1.383,8.264-9.825,12.234-22.162,10.17L314.623,87.266z M316.073,78.953l15.189,2.541
			c5.645,0.945,10.186-0.09,10.78-3.641c0.594-3.549-3.362-6.006-8.949-6.941l-15.248-2.551L316.073,78.953z"/>
	</g>
	<g>
		<path fill="#6400FF" d="M359.227,66.67l38.119,6.379l-1.402,8.381l-28.051-4.695l-1.578,9.428l24.908,4.17l-1.393,8.322
			l-24.907-4.168l-1.792,10.707l29.623,4.957l-1.403,8.381l-39.69-6.643L359.227,66.67z M387.648,68.076l-13.601,0.117l-0.356-3.23
			l13.002-4.764L387.648,68.076z"/>
		<path fill="#6400FF" d="M448.836,108.527c0,0-4.086,19.777-26.841,15.969c-15.481-2.59-23.864-13.984-21.585-27.602
			c2.279-13.617,14.147-21.623,28.813-19.17c19.438,3.254,19.049,19.162,19.049,19.162l-9.295,3.709c0,0,1.308-11.746-11.438-13.879
			c-8.205-1.373-14.999,3.113-16.479,11.959c-1.48,8.846,3.86,15.184,12.299,16.596c12.92,2.162,15.701-8.379,15.701-8.379
			L448.836,108.527z"/>
	</g>
	<g>
		<path fill="#6400FF" d="M470.43,85.279l-7.567,45.219l-10.067-1.684l7.567-45.219L470.43,85.279z"/>
		<path fill="#6400FF" d="M488.624,101.307c-1.539,9.195,30.311,7.285,27.389,24.746c-1.5,8.961-12.076,12.098-21.97,10.441
			c-20.078-3.359-22.308-18.988-22.308-18.988l9.537-2.652c0,0,1.788,10.41,14.009,12.455c5.237,0.877,9.807,0.025,10.333-3.117
			c1.656-9.893-30.085-7.906-27.3-24.551c1.354-8.088,10.611-11.924,19.281-10.473c15.713,2.629,18.519,15.902,18.519,15.902
			l-9.266,3.533c0,0-1.159-8.809-10.877-10.436C491.896,97.486,489.052,98.746,488.624,101.307z"/>
		<path fill="#6400FF" d="M565.921,147.744l3.583-21.416l-20.653,15.09l-14.478-20.73l-3.545,21.186l-9.777-1.637l7.674-45.859
			l22.473,33.016l32.116-23.881l-7.674,45.859L565.921,147.744z"/>
	</g>
	<g>
		<path fill="#6400FF" d="M592.747,105.748l38.118,6.379l-1.402,8.381l-28.051-4.693l-1.578,9.426l24.908,4.168l-1.393,8.324
			l-24.908-4.168l-1.792,10.707l29.622,4.957l-1.402,8.381l-39.689-6.643L592.747,105.748z"/>
	</g>
</g>
<polygon fill="#FFFFFF" points="1197.217,140.465 630.193,389.963 656.609,450 710.699,450 1199.629,234.866 1199.629,145.947 "/>
<g>
	<g>
		<path fill="#6400FF" d="M681.191,444.26l6.941-54.111l44.584,31.439l-10.91,4.801l-6.494-4.942l-22.468,9.886l-0.742,8.127
			L681.191,444.26z M693.798,421.629l13.718-6.036l-12.301-9.349L693.798,421.629z"/>
	</g>
	<g>
		<path fill="#6400FF" d="M737.572,419.451l-18.821-42.774l43.613,10.335l-10.527-23.927l9.396-4.135l18.655,42.397l-43.477-9.879
			l10.504,23.871L737.572,419.451z"/>
		<path fill="#6400FF" d="M815.689,344.273l-18.039,7.938l15.043,34.187l-9.398,4.136l-15.043-34.188l-18.039,7.938l-3.422-7.778
			l45.476-20.01L815.689,344.273z"/>
	</g>
	<g>
		<path fill="#6400FF" d="M827.06,329.986l18.466,41.965l-9.344,4.111l-18.465-41.965L827.06,329.986z"/>
		<path fill="#6400FF" d="M851.063,333.414c3.754,8.533,29.342-10.525,36.472,5.676c3.66,8.318-3.466,16.738-12.647,20.779
			c-18.632,8.197-29.066-3.648-29.066-3.648l6.521-7.447c0,0,7.203,7.725,18.545,2.734c4.86-2.139,8.215-5.354,6.932-8.271
			c-4.04-9.182-29.494,9.885-36.291-5.562c-3.303-7.507,2.336-15.79,10.382-19.33c14.583-6.416,24.205,3.145,24.205,3.145
			l-5.811,8.037c0,0-5.8-6.732-14.818-2.764C851.705,328.426,850.018,331.037,851.063,333.414z"/>
		<path fill="#6400FF" d="M901.604,327.42l7.319,16.635l-9.396,4.135l-18.466-41.965l23.602-10.385
			c11.396-5.014,20.635-3.212,24.104,4.673c3.375,7.669-1.508,15.619-12.958,20.657L901.604,327.42z M898.261,319.674l14.096-6.203
			c5.239-2.305,8.47-5.66,7.02-8.955c-1.449-3.294-6.105-3.18-11.291-0.898l-14.149,6.227L898.261,319.674z"/>
	</g>
	<g>
		<path fill="#6400FF" d="M927.614,285.742l35.376-15.566l3.422,7.777l-26.032,11.455l3.85,8.749l23.115-10.171l3.398,7.724
			l-23.115,10.171l4.372,9.938l27.491-12.097l3.422,7.777l-36.834,16.208L927.614,285.742z M952.154,271.335l-11.311,7.554
			l-2.069-2.506l8.262-11.112L952.154,271.335z"/>
		<path fill="#6400FF" d="M1025.504,271.615c0,0,7.426,18.779-13.691,28.071c-14.367,6.321-27.625,1.389-33.186-11.249
			c-5.561-12.639-0.024-25.84,13.586-31.828c18.039-7.938,26.436,5.58,26.436,5.58l-5.739,8.197c0,0-5.347-10.54-17.175-5.335
			c-7.615,3.351-10.836,10.828-7.225,19.037c3.612,8.209,11.554,10.581,19.385,7.136c11.99-5.276,8.536-15.617,8.536-15.617
			L1025.504,271.615z"/>
	</g>
	<g>
		<path fill="#6400FF" d="M1030.816,240.332l18.465,41.965l-9.344,4.111l-18.465-41.965L1030.816,240.332z"/>
		<path fill="#6400FF" d="M1054.819,243.759c3.755,8.533,29.341-10.526,36.471,5.677c3.659,8.318-3.465,16.738-12.646,20.779
			c-18.633,8.198-29.066-3.648-29.066-3.648l6.521-7.447c0,0,7.202,7.725,18.544,2.734c4.86-2.139,8.215-5.354,6.932-8.271
			c-4.04-9.182-29.494,9.884-36.291-5.562c-3.303-7.507,2.336-15.79,10.383-19.33c14.582-6.417,24.205,3.145,24.205,3.145
			l-5.812,8.036c0,0-5.799-6.731-14.817-2.763C1055.461,238.771,1053.773,241.382,1054.819,243.759z"/>
		<path fill="#6400FF" d="M1144.923,240.213l-8.745-19.875l-8.998,23.943l-23.475-9.398l8.651,19.66l-9.074,3.992l-18.727-42.559
			l36.897,15.289l13.764-37.58l18.727,42.559L1144.923,240.213z"/>
	</g>
	<g>
		<path fill="#6400FF" d="M1144.33,190.385l35.375-15.565l3.422,7.777l-26.032,11.454l3.85,8.749l23.115-10.171l3.399,7.724
			l-23.115,10.171l4.372,9.938l27.491-12.096l3.422,7.777l-36.834,16.207L1144.33,190.385z"/>
	</g>
</g>
<g>
	<path fill="#6400FF" d="M251.221,413.249l24.861-8.804l7.516,21.222l-8.567,3.034l-3.549-10.023
		c-0.046,0.583-0.485,12.334-13.251,16.855c-10.527,3.728-23.581-0.032-28.895-15.038c-4.641-13.104,1.903-25.944,16.238-31.021
		c18.366-6.504,25.9,7.654,25.9,7.654l-6.374,7.802c0,0-4.749-10.921-16.62-6.718c-8.287,2.936-11.911,10.143-8.897,18.654
		c3.213,9.07,11.4,11.905,18.68,9.327c8.455-2.994,9.252-9.642,9.252-9.642l-13.438,4.76L251.221,413.249z"/>
	<path fill="#6400FF" d="M288.188,424.042l11.005-53.807l42.414,34.89l-11.311,4.006l-6.151-5.447l-23.294,8.249l-1.353,8.104
		L288.188,424.042z M302.531,402.264l14.223-5.037l-11.652-10.305L302.531,402.264z"/>
</g>
<g>
	<path fill="#6400FF" d="M346.646,403.342l-15.705-44.349l43.015,13.63l-8.784-24.805l9.744-3.451l15.566,43.956l-42.914-13.161
		l8.765,24.75L346.646,403.342z"/>
	<path fill="#6400FF" d="M384.039,341.137l36.677-12.988l2.855,8.062l-26.99,9.559l3.213,9.07l23.966-8.486l2.835,8.007
		l-23.966,8.487l3.649,10.303l28.501-10.092l2.855,8.062l-38.188,13.523L384.039,341.137z"/>
</g>
<g>
	<polygon fill="#6400FF" points="204.032,401.35 199.346,394.881 190.224,405.421 192.114,408.091 	"/>
	<polygon fill="#6400FF" points="214.885,450 231.917,443.969 229.062,435.906 200.56,445.999 196.91,435.695 220.877,427.209 
		218.041,419.201 194.075,427.688 190.862,418.617 217.853,409.06 214.997,400.997 178.32,413.984 191.074,450 	"/>
</g>
<g>
	<polygon fill="#6400FF" points="166.49,450 173.508,415.689 162.196,419.695 157.069,450 	"/>
	<polygon fill="#6400FF" points="153.406,450 131.399,430.601 120.089,434.606 138.803,450 	"/>
</g>
</svg>
