<svg xmlns="http://www.w3.org/2000/svg" width="1218.898" height="510.236" viewBox="0 0 1218.898 510.236"><path fill="#FFF" d="M829.311 265l-12.446-88.544 356.346-50.09 12.447 88.545z"/><g fill="#6300FF"><path d="M853.58 223.736c.967 6.882 3.882 10.552 9.882 9.709 6.176-.868 8.085-5.216 7.118-12.098l-3.704-26.354 10.176-1.43 3.704 26.354c1.868 13.294-2.988 20.995-15.988 22.822-12.765 1.793-19.379-4.295-21.247-17.589l10.059-1.414zM895.992 190.901l3.117 22.177c1.058 7.53 4.938 14.663 14.41 13.332 9.471-1.331 11.235-9.257 10.178-16.788l-3.117-22.177 10.235-1.438 3.117 22.177c1.959 13.941-1.755 25.081-19.107 27.52-17.354 2.439-23.993-7.246-25.952-21.187l-3.117-22.177 10.236-1.439zM952.253 196.011c1.307 9.294 31.306-2.18 33.786 15.467 1.273 9.059-7.931 15.272-17.931 16.677-20.295 2.852-27.168-11.479-27.168-11.479l8.354-5.433s4.868 9.454 17.222 7.717c5.293-.744 9.423-2.944 8.977-6.12-1.405-10.001-31.279 1.516-33.644-15.309-1.149-8.176 6.577-14.661 15.343-15.893 15.882-2.232 22.593 9.662 22.593 9.662l-7.827 6.199s-3.779-8.107-13.603-6.726c-4.117.58-6.465 2.65-6.102 5.238zM1035.001 180.002l-19.647 2.761 5.233 37.235-10.235 1.438-5.233-37.235-19.647 2.761-1.19-8.471 49.53-6.961 1.189 8.472zM1049.986 169.258l6.424 45.706-10.177 1.43-6.424-45.706 10.177-1.43zM1110.99 187.619s2.062 20.226-20.938 23.458c-15.647 2.199-27.146-6.203-29.079-19.967-1.935-13.766 7.038-25.045 21.86-27.128 19.648-2.761 24.09 12.632 24.09 12.632l-7.802 6.375s-2.3-11.674-15.183-9.863c-8.294 1.166-13.459 7.531-12.202 16.473 1.256 8.94 8.304 13.409 16.833 12.21 13.06-1.835 12.538-12.8 12.538-12.8l9.883-1.39zM1114.453 160.198l38.529-5.415 1.19 8.471-28.353 3.985 1.339 9.529 25.176-3.539 1.183 8.412-25.176 3.539 1.521 10.824 29.94-4.208 1.19 8.47-40.117 5.638-6.422-45.706z"/></g><path fill="#FFF" d="M671.22 333.236l-4.842-79.24 246.677-15.075 4.843 79.24z"/><g fill="#6300FF"><path d="M732.668 270.209c15.594-.954 26.571 8.253 27.384 21.535.812 13.281-8.973 23.58-24.566 24.533l-20.396 1.248-2.817-46.069 20.395-1.247zm2.282 37.293c7.827-.479 14.841-5.488 14.253-15.094-.587-9.607-8.06-14.029-16.009-13.602l-10.142.561 1.759 28.756 10.139-.621zM766.522 268.139l38.836-2.376.522 8.538-28.579 1.748.587 9.605 25.377-1.553.519 8.479-25.377 1.552.668 10.91 30.18-1.846.521 8.538-40.437 2.473-2.817-46.068zm28.197-5.058l-13.314 3.195-1.081-3.088 11.675-7.618 2.72 7.511zM815.021 265.172l38.836-2.375.522 8.537-28.52 1.744.587 9.605 25.377-1.551.516 8.418-25.377 1.553 1.192 19.506-10.316.632-2.817-46.069zM869.745 261.825l2.817 46.07-10.258.627-2.817-46.069 10.258-.628z"/></g><path fill="#FFF" d="M637.034 168.113l-9.515-86.86 572.625-62.729 9.515 86.86z"/><g fill="#6300FF"><path d="M709.853 123.514s1.444 20.28-21.644 22.808c-15.709 1.72-26.945-7.03-28.458-20.846-1.514-13.818 7.8-24.818 22.68-26.447 19.723-2.16 23.693 13.361 23.693 13.361l-7.993 6.133s-1.942-11.738-14.874-10.322c-8.326.912-13.684 7.116-12.7 16.091.982 8.975 7.891 13.657 16.452 12.719 13.109-1.436 12.924-12.411 12.924-12.411l9.92-1.086zM715.197 119.404c-1.448-13.228 7.857-24.824 23.388-26.525s27.009 7.62 28.457 20.847c1.448 13.227-7.74 24.811-23.27 26.511-15.531 1.701-27.127-7.607-28.575-20.833zm10.805-1.183c1.048 9.565 8.781 14.156 16.812 13.276 7.795-.854 14.47-7.022 13.422-16.587-1.048-9.567-8.801-14.334-16.713-13.468-8.03.879-14.568 7.212-13.521 16.779zM777.455 135.711l-5.122-46.767 38.745 23.125-2.865-26.158 10.275-1.125 5.077 46.354-38.753-22.647 2.858 26.1-10.215 1.118zM828.11 83.732l38.677-4.236.931 8.504-28.402 3.11 1.048 9.566 25.272-2.768.918 8.385-25.272 2.768 2.128 19.427-10.274 1.125-5.026-45.881zM872.395 78.882l38.677-4.236.932 8.503-28.462 3.117 1.048 9.566 25.273-2.768.925 8.444-25.273 2.768 1.189 10.865 30.056-3.292.932 8.503-40.271 4.41-5.026-45.88zm27.922-6.405l-13.146 3.83-1.229-3.033 11.297-8.169 3.078 7.372zM925.72 119.474l-5.025-45.881 25.804-2.826c12.46-1.365 20.785 3.161 21.729 11.783.814 7.439-4.666 13.06-14.588 15.223 10.116-.392 15.786 15.36 20.323 16.418l-13.227 1.449c-4.65-.985-7.484-17.586-20.888-16.118l-5.847.64 1.992 18.188-10.273 1.124zm7.417-27.763l15.412-1.688c5.728-.627 9.844-2.871 9.449-6.473-.395-3.602-4.898-4.901-10.568-4.28l-15.47 1.694 1.177 10.747zM975.667 67.572l38.677-4.236.932 8.503-28.462 3.117 1.048 9.565 25.272-2.768.925 8.444-25.272 2.768 1.189 10.865 30.056-3.292.932 8.503-40.271 4.411-5.026-45.88zM1028.933 108.17l-5.122-46.767 38.745 23.125-2.865-26.158 10.275-1.125 5.077 46.354-38.753-22.646 2.858 26.1-10.215 1.117zM1130.5 77.446s1.444 20.279-21.644 22.808c-15.707 1.72-26.943-7.03-28.457-20.846-1.514-13.818 7.799-24.818 22.679-26.447 19.723-2.16 23.694 13.361 23.694 13.361l-7.994 6.133s-1.942-11.738-14.874-10.322c-8.326.912-13.683 7.116-12.699 16.091.983 8.975 7.89 13.657 16.452 12.719 13.108-1.436 12.923-12.411 12.923-12.411l9.92-1.086zM1134.796 50.145l38.678-4.236.932 8.503-28.462 3.117 1.048 9.566 25.272-2.768.925 8.444-25.272 2.768 1.189 10.865 30.056-3.292.932 8.503-40.271 4.41-5.027-45.88z"/></g><path fill="#FFF" d="M563.178 314.837l-29.846-84.28 353.981-125.354 29.846 84.28z"/><g fill="#6300FF"><path d="M569.146 244.658l36.677-12.987 2.855 8.062-26.989 9.558 3.212 9.071 23.966-8.487 2.835 8.008-23.965 8.487 3.648 10.303 28.501-10.092 2.854 8.062-38.188 13.523-15.406-43.508zm25.711-12.634l-11.918 6.741-1.89-2.67 9.122-10.541 4.686 6.47zM642.046 243.923l24.862-8.804 7.516 21.223-8.568 3.034-3.549-10.023c-.046.583-.484 12.334-13.252 16.855-10.526 3.729-23.579-.032-28.893-15.038-4.641-13.103 1.902-25.945 16.237-31.021 18.366-6.504 25.901 7.654 25.901 7.654l-6.375 7.802s-4.749-10.921-16.62-6.717c-8.288 2.935-11.911 10.142-8.897 18.653 3.213 9.071 11.4 11.905 18.68 9.328 8.455-2.994 9.252-9.642 9.252-9.642l-13.438 4.759-2.856-8.063zM679.068 254.697l11.005-53.808 42.414 34.891-11.311 4.005-6.15-5.447-23.294 8.249-1.353 8.104-11.311 4.006zm14.345-21.779l14.223-5.037-11.652-10.305-2.571 15.342zM722.119 190.488l9.687-3.43 12.552 35.445 25.479-9.022 2.854 8.063-35.164 12.452-15.408-43.508zM772.176 172.762l15.407 43.508-9.688 3.431-15.407-43.508 9.688-3.431zM827.721 162.167l-18.702 6.622 12.552 35.445-9.743 3.45-12.552-35.445-18.703 6.623-2.855-8.062 47.148-16.696 2.855 8.063zM830.576 152.082l36.677-12.988 2.855 8.063-26.99 9.557 3.213 9.071 23.965-8.486 2.836 8.007-23.966 8.487 3.648 10.304 28.501-10.093 2.855 8.063-38.188 13.523-15.406-43.508zm25.711-12.635l-11.918 6.741-1.891-2.67 9.123-10.54 4.686 6.469z"/></g><path fill="#FFF" d="M8.989 355.162l11.668-88.641 372.307 49.008-11.668 88.64z"/><g fill="#6300FF"><path d="M37.693 294.252l38.576 5.08-1.117 8.48-28.387-3.738-1.256 9.541 25.207 3.318-1.109 8.422-25.206-3.318-1.427 10.838 29.977 3.945-1.116 8.48-40.166-5.287 6.024-45.761zm28.644.416l-13.679.596-.473-3.238 12.914-5.25 1.238 7.892zM131.334 315.209l-19.67-2.59-4.908 37.279-10.248-1.35 4.908-37.279-19.67-2.59 1.116-8.48 49.588 6.529-1.116 8.481zM174.383 339.09l-29.211-3.846-2.551 19.377-10.189-1.342 6.024-45.762 10.189 1.342-2.373 18.021 29.211 3.846 2.373-18.021 10.248 1.35-6.024 45.76-10.248-1.348 2.551-19.377zM207.89 316.661l-6.024 45.76-10.189-1.342 6.024-45.76 10.189 1.342zM245.785 381.504c-6.949-.916-10.481-5.035-9.876-9.629.287-2.18 1.164-3.383 1.839-3.951-.773-.043-1.539-.143-2.305-.244-16.078-2.115-25.208-13.326-23.394-27.105 1.814-13.781 13.534-22.244 29.612-20.129 16.078 2.117 25.089 13.311 23.275 27.092-1.496 11.365-9.652 19.16-21.485 20.297-.502.174-1.389.537-1.528 1.598-.256 1.943 2.722 2.994 6.255 3.459 4.24.559 7.25-.004 7.25-.004l-1.14 8.658c.001-.001-2.79.71-8.503-.042zm-22.958-39.511c-1.178 8.951 4.653 15.172 13.84 16.383 8.952 1.178 16.313-3.307 17.491-12.258 1.179-8.951-4.63-15.348-13.699-16.543-9.187-1.209-16.453 3.467-17.632 12.418zM285.508 326.879l-2.923 22.203c-.993 7.537.842 15.449 10.324 16.697s13.301-5.92 14.294-13.457l2.923-22.203 10.248 1.35-2.923 22.203c-1.838 13.957-8.393 23.699-25.766 21.412-17.374-2.287-21.185-13.395-19.347-27.352l2.923-22.203 10.247 1.35zM329.5 332.67l38.575 5.078-1.116 8.48-28.387-3.736-1.256 9.541 25.206 3.318-1.109 8.422-25.206-3.318-1.427 10.836 29.977 3.947-1.116 8.48-40.165-5.289 6.024-45.759z"/></g><path fill="#FFF" d="M333.764 296.844l-29.845-84.278 269.126-95.305 29.845 84.278z"/><g fill="#6300FF"><path d="M349.838 223.102l36.677-12.988 2.855 8.063-26.934 9.538 3.212 9.071 23.966-8.487 2.815 7.952-23.965 8.487 6.523 18.421-9.743 3.451-15.406-43.508zM397.438 230.822c-4.442-12.543 1.959-25.964 16.686-31.18 14.728-5.215 28.036 1.227 32.479 13.77 4.441 12.543-1.848 25.924-16.575 31.14-14.729 5.215-28.149-1.188-32.59-13.73zm10.247-3.629c3.212 9.071 11.792 11.767 19.407 9.07 7.392-2.617 12.475-10.151 9.262-19.223-3.212-9.072-11.852-11.935-19.354-9.278-7.616 2.697-12.528 10.36-9.315 19.431zM452.254 211.41c-4.441-12.543 1.959-25.964 16.687-31.179 14.727-5.215 28.036 1.227 32.478 13.77 4.441 12.542-1.848 25.924-16.574 31.139-14.728 5.215-28.149-1.187-32.591-13.73zm10.247-3.628c3.212 9.071 11.793 11.767 19.407 9.07 7.393-2.618 12.475-10.152 9.263-19.223-3.213-9.072-11.852-11.935-19.355-9.278-7.614 2.697-12.527 10.359-9.315 19.431zM520.448 162.686c14.727-5.215 27.817.61 32.259 13.153 4.442 12.542-2.126 25.14-16.853 30.355l-19.262 6.821-15.406-43.508 19.262-6.821zm12.471 35.22c7.392-2.618 12.753-9.368 9.541-18.439-3.213-9.071-11.614-11.264-19.138-8.662l-9.595 3.335 9.617 27.157 9.575-3.391z"/></g><path fill="#FFF" d="M192.707 290.624l20.546-76.682 238.72 63.962-20.545 76.682z"/><path fill="#6300FF" d="M270.481 298.034l5.658-21.115-22.152 13.129-12.509-22.17-5.597 20.885-9.639-2.582 12.115-45.214 19.335 35.253 34.485-20.832-12.115 45.214-9.581-2.568z"/><g fill="#6300FF"><path d="M293.699 280.456c3.444-12.854 16.321-20.289 31.412-16.244 15.091 4.043 22.411 16.891 18.966 29.744-3.443 12.852-16.206 20.318-31.297 16.273-15.091-4.043-22.524-16.922-19.081-29.773zm10.5 2.814c-2.491 9.295 3.054 16.375 10.856 18.467 7.575 2.029 16.03-1.301 18.521-10.596 2.49-9.297-3.007-16.549-10.696-18.609-7.801-2.092-16.191 1.441-18.681 10.738zM367.801 276.327l-11.946 44.584-9.926-2.66 11.946-44.582 9.926 2.658zM384.488 294.143c-2.429 9.066 29.669 10.227 25.058 27.439-2.368 8.836-13.268 10.959-23.022 8.344-19.796-5.303-20.523-21.18-20.523-21.18l9.813-1.738s.787 10.605 12.836 13.834c5.164 1.383 9.826.971 10.656-2.127 2.613-9.754-29.386-10.826-24.988-27.236 2.137-7.975 11.783-10.926 20.333-8.635 15.492 4.15 17.022 17.723 17.022 17.723l-9.627 2.646s-.312-8.938-9.893-11.506c-4.018-1.076-6.989-.089-7.665 2.436z"/></g><path fill="#FFF" d="M37.285 249.567L24.84 161.023l362.197-50.912 12.446 88.545z"/><g fill="#6300FF"><path d="M64.453 207.866c.967 6.882 3.883 10.552 9.883 9.709 6.177-.868 8.085-5.216 7.118-12.098l-3.704-26.353 10.176-1.43 3.704 26.353c1.868 13.295-2.987 20.995-15.988 22.822-12.765 1.794-19.379-4.294-21.247-17.589l10.058-1.414zM106.865 175.033l3.117 22.176c1.058 7.53 4.94 14.663 14.411 13.332s11.235-9.257 10.177-16.788l-3.116-22.176 10.235-1.438 3.117 22.176c1.959 13.941-1.754 25.081-19.107 27.52-17.353 2.439-23.993-7.246-25.952-21.187l-3.117-22.176 10.235-1.439zM163.127 180.141c1.307 9.295 31.307-2.18 33.787 15.467 1.273 9.059-7.932 15.272-17.932 16.677-20.294 2.852-27.168-11.478-27.168-11.478l8.354-5.434s4.868 9.454 17.222 7.718c5.294-.744 9.424-2.945 8.977-6.121-1.405-10.001-31.279 1.516-33.644-15.307-1.148-8.177 6.577-14.662 15.343-15.894 15.882-2.232 22.593 9.662 22.593 9.662l-7.827 6.199s-3.779-8.107-13.603-6.727c-4.116.58-6.465 2.65-6.102 5.238zM245.875 164.133l-19.647 2.761 5.233 37.236-10.235 1.438-5.233-37.236-19.647 2.761-1.19-8.47 49.53-6.961 1.189 8.471zM260.86 153.39l6.424 45.706-10.177 1.43-6.424-45.706 10.177-1.43zM321.866 171.749s2.062 20.226-20.938 23.458c-15.646 2.199-27.146-6.203-29.079-19.967-1.936-13.766 7.037-25.045 21.861-27.128 19.646-2.761 24.09 12.632 24.09 12.632l-7.803 6.375s-2.3-11.674-15.184-9.863c-8.294 1.166-13.457 7.531-12.201 16.472 1.257 8.94 8.304 13.409 16.834 12.21 13.058-1.835 12.537-12.8 12.537-12.8l9.883-1.389zM325.327 144.33l38.53-5.415 1.19 8.47-28.354 3.985 1.339 9.529 25.177-3.538 1.183 8.412-25.177 3.538 1.521 10.824 29.941-4.208 1.19 8.471-40.118 5.638-6.422-45.706z"/></g><path fill="#FFF" d="M258.513 496.832l-23.14-86.363 353.275-94.655 23.14 86.363z"/><path fill="#6300FF" d="M262.051 429.477l11.59-3.105 23.374 24.117 8.185-32.573 11.59-3.105-15.193 52.776-39.546-38.11z"/><g fill="#6300FF"><path d="M321.722 413.488l37.582-10.07 2.214 8.263-27.656 7.411 2.491 9.295 24.558-6.581 2.198 8.205-24.558 6.581 2.829 10.558 29.205-7.826 2.214 8.263-39.132 10.485-11.945-44.584zm26.622-10.578l-12.41 5.785-1.675-2.811 9.922-9.792 4.163 6.818zM394.512 418.459l25.477-6.826 5.827 21.746-8.779 2.354-2.752-10.271c-.091.577-1.451 12.259-14.534 15.764-10.786 2.891-23.503-1.883-27.623-17.259-3.598-13.427 3.932-25.716 18.621-29.651 18.82-5.043 25.221 9.664 25.221 9.664l-6.968 7.276s-3.877-11.259-16.042-8c-8.492 2.276-12.67 9.176-10.333 17.897 2.491 9.295 10.432 12.764 17.891 10.766 8.664-2.321 9.979-8.887 9.979-8.887l-13.771 3.69-2.214-8.263zM430.575 432.105l15.193-52.778 39.545 38.111-11.59 3.105-5.704-5.913-23.87 6.396-1.983 7.972-11.591 3.107zm16.008-20.587l14.575-3.904-10.809-11.188-3.766 15.092zM490.476 416.054l-12.177-45.444 41.812 16.963-6.812-25.418 9.985-2.676 12.068 45.042-41.747-16.487 6.795 25.361-9.924 2.659zM532.635 356.974l37.582-10.07 2.214 8.263-27.656 7.41 2.491 9.295 24.558-6.58 2.198 8.205-24.558 6.58 2.829 10.558 29.205-7.825 2.214 8.263-39.132 10.485-11.945-44.584z"/></g><path fill="#FFF" d="M833.234 426.086l11.668-88.642 362.6 47.73-11.668 88.642z"/><path fill="#6300FF" d="M862.312 365.186l11.896 1.566 12.365 31.225 20.026-26.961 11.896 1.566-34.233 42.945-21.95-50.341z"/><g fill="#6300FF"><path d="M923.56 373.25l38.575 5.078-1.116 8.48-28.387-3.738-1.256 9.541 25.206 3.318-1.109 8.422-25.206-3.318-1.427 10.838 29.977 3.947-1.116 8.48-40.165-5.289 6.024-45.759zm28.644.415l-13.679.596-.473-3.238 12.914-5.25 1.238 7.892zM988.848 405.69l26.148 3.443-2.938 22.322-9.011-1.188 1.388-10.541c-.305.498-6.031 10.77-19.459 9-11.071-1.457-20.995-10.732-18.917-26.516 1.814-13.781 13.475-22.252 28.552-20.268 19.317 2.543 19.603 18.58 19.603 18.58l-9.222 4.057s.727-11.887-11.76-13.531c-8.717-1.146-15.217 3.629-16.396 12.582-1.257 9.541 4.753 15.783 12.408 16.791 8.894 1.17 12.622-4.391 12.622-4.391l-14.135-1.861 1.117-8.479zM1016.943 432.098l34.233-42.947 21.952 50.344-11.896-1.566-3.007-7.645-24.501-3.227-4.884 6.607-11.897-1.566zm22.668-12.892l14.96 1.969-5.705-14.473-9.255 12.504zM1078.427 440.192l6.141-46.645 32.139 31.672 3.435-26.09 10.248 1.35-6.086 46.232-32.261-31.209-3.427 26.031-10.189-1.341zM1139.986 401.743l38.575 5.078-1.116 8.48-28.387-3.736-1.256 9.541 25.207 3.318-1.109 8.422-25.207-3.32-1.427 10.838 29.977 3.947-1.116 8.48-40.165-5.287 6.024-45.761z"/></g><path fill="#FFF" d="M587.213 481.687l-27.366-82.98 588.327-194.024 27.366 82.981z"/><g fill="#6300FF"><path d="M603.727 458.395l12.176-53.555 41.644 35.809-11.396 3.757-6.03-5.579-23.469 7.738-1.529 8.072-11.396 3.758zm14.815-21.461l14.329-4.725-11.425-10.557-2.904 15.282zM662.621 438.975l-14.733-44.682 42.707 14.565-8.241-24.991 9.817-3.236 14.603 44.285-42.614-14.096 8.222 24.936-9.761 3.219zM748.102 371.194l-18.842 6.213 11.775 35.711-9.816 3.236-11.775-35.71-18.843 6.214-2.679-8.123 47.501-15.664 2.679 8.123zM760.935 357.956l14.454 43.834-9.76 3.219-14.454-43.834 9.76-3.219zM784.659 363.706c2.939 8.914 30.418-7.717 35.999 9.207 2.864 8.689-5.087 16.439-14.677 19.603-19.465 6.419-28.777-6.46-28.777-6.46l7.254-6.834s6.473 8.438 18.32 4.529c5.076-1.674 8.749-4.574 7.745-7.619-3.163-9.592-30.511 7.058-35.832-9.076-2.585-7.842 3.864-15.599 12.271-18.371 15.231-5.021 23.952 5.488 23.952 5.488l-6.6 7.492s-5.161-7.305-14.582-4.197c-3.949 1.3-5.892 3.755-5.073 6.238z"/></g><path fill="#6300FF" d="M835.719 362.631l5.729 17.375-9.816 3.237-14.454-43.833 24.652-8.129c11.904-3.926 20.988-1.229 23.703 7.007 2.643 8.01-3.019 15.507-14.979 19.45l-14.835 4.893zm-2.603-8.086l14.724-4.854c5.472-1.805 9.032-4.855 7.897-8.297-1.135-3.44-5.812-3.776-11.228-1.989l-14.779 4.873 3.386 10.267z"/><g fill="#6300FF"><path d="M865.918 323.337l36.951-12.185 2.679 8.123-27.192 8.967 3.014 9.14 24.146-7.962 2.66 8.066-24.146 7.962 3.423 10.381 28.715-9.469 2.679 8.124-38.474 12.687-14.455-43.834zm25.98-12.07l-12.062 6.479-1.832-2.711 9.351-10.34 4.543 6.572zM965.377 318.625s5.629 19.536-16.429 26.81c-15.007 4.949-27.815-1.273-32.169-14.474-4.354-13.201 2.469-25.897 16.685-30.585 18.843-6.214 25.954 8.144 25.954 8.144l-6.543 7.66s-4.342-11.077-16.696-7.003c-7.954 2.623-11.903 9.805-9.076 18.38 2.827 8.574 10.557 11.718 18.737 9.021 12.523-4.13 10.06-14.827 10.06-14.827l9.477-3.126zM973.778 287.771l14.454 43.834-9.76 3.218-14.454-43.834 9.76-3.218zM997.502 293.52c2.938 8.914 30.418-7.716 35.999 9.208 2.865 8.688-5.087 16.44-14.678 19.603-19.464 6.418-28.777-6.461-28.777-6.461l7.255-6.833s6.473 8.437 18.319 4.53c5.077-1.675 8.749-4.575 7.745-7.621-3.162-9.59-30.51 7.059-35.83-9.076-2.586-7.842 3.862-15.598 12.269-18.37 15.231-5.022 23.952 5.488 23.952 5.488l-6.599 7.492s-5.162-7.305-14.583-4.198c-3.949 1.302-5.89 3.757-5.072 6.238z"/></g><path fill="#6300FF" d="M1087.97 298.715l-6.846-20.761-11.327 23.126-22.616-11.682 6.771 20.533-9.478 3.126-14.659-44.455 35.498 18.881 17.418-36.33 14.659 44.455-9.42 3.107zM1092.187 248.726l36.951-12.185 2.679 8.123-27.191 8.966 3.014 9.14 24.145-7.962 2.66 8.068-24.145 7.961 3.424 10.381 28.713-9.469 2.68 8.123-38.475 12.688-14.455-43.834z"/><path fill="#FFF" d="M41.155 94.658L55.572 8.479 658.96 109.421 644.544 195.6z"/><g fill="#6300FF"><path d="M62.805 81.077l35.711-41.726 20.181 51.078-11.835-1.98-2.739-7.746-24.373-4.078-5.112 6.433-11.833-1.981zm23.104-12.095l14.881 2.49-5.195-14.661-9.686 12.171zM123.968 91.312l7.765-46.401 31.014 32.774 4.343-25.954 10.194 1.706-7.696 45.991-31.151-32.315-4.333 25.896-10.136-1.697zM231.176 71.128l-19.568-3.274-6.206 37.086-10.194-1.706 6.206-37.086-19.568-3.274 1.412-8.438 49.331 8.255-1.413 8.437zM248.697 65.387l-7.618 45.522-10.136-1.695 7.618-45.523 10.136 1.696zM267.016 81.521c-1.549 9.257 30.513 7.335 27.572 24.911-1.51 9.022-12.156 12.18-22.117 10.514-20.212-3.383-22.458-19.117-22.458-19.117l9.602-2.669s1.8 10.479 14.104 12.538c5.272.883 9.873.026 10.402-3.138 1.667-9.96-30.288-7.96-27.484-24.716C258 71.7 267.319 67.839 276.048 69.3c15.819 2.647 18.642 16.009 18.642 16.009l-9.328 3.558s-1.166-8.867-10.95-10.505c-4.103-.685-6.965.582-7.396 3.159z"/></g><path fill="#6300FF" d="M312.704 104.344l-3.02 18.045-10.194-1.706 7.618-45.522 25.603 4.284c12.362 2.069 19.145 8.685 17.714 17.238-1.392 8.319-9.891 12.318-22.312 10.239l-15.409-2.578zm1.461-8.368l15.291 2.56c5.683.951 10.254-.092 10.853-3.666.598-3.572-3.385-6.047-9.009-6.987l-15.35-2.569-1.785 10.662z"/><g fill="#6300FF"><path d="M357.726 83.631l38.375 6.422-1.412 8.437-28.239-4.726-1.588 9.491 25.075 4.196-1.402 8.377-25.075-4.195-1.804 10.78 29.821 4.99-1.412 8.437-39.956-6.687 7.617-45.522zm28.612 1.415l-13.692.118-.359-3.253 13.089-4.795.962 7.93zM447.941 125.77s-4.115 19.91-27.022 16.077c-15.585-2.608-24.024-14.079-21.73-27.788 2.294-13.709 14.243-21.769 29.006-19.299 19.569 3.275 19.177 19.292 19.177 19.292l-9.358 3.732s1.316-11.824-11.514-13.972c-8.261-1.382-15.1 3.135-16.591 12.04-1.49 8.905 3.887 15.286 12.382 16.708 13.006 2.176 15.806-8.438 15.806-8.438l9.844 1.648zM469.683 102.366l-7.618 45.522-10.135-1.696 7.618-45.522 10.135 1.696zM488 118.5c-1.549 9.257 30.513 7.335 27.572 24.911-1.51 9.023-12.156 12.181-22.117 10.514-20.213-3.383-22.458-19.116-22.458-19.116l9.602-2.67s1.8 10.48 14.104 12.539c5.272.882 9.873.025 10.402-3.138 1.667-9.96-30.288-7.96-27.484-24.716 1.363-8.145 10.682-12.006 19.411-10.545 15.818 2.647 18.642 16.01 18.642 16.01l-9.328 3.558s-1.167-8.867-10.951-10.505c-4.102-.687-6.964.581-7.395 3.158z"/></g><path fill="#6300FF" d="M565.704 165.232l3.608-21.561-20.791 15.191-14.576-20.869-3.569 21.326-9.843-1.647 7.726-46.168 22.625 33.237 32.331-24.041-7.726 46.168-9.785-1.636zM592.712 122.955l38.375 6.421-1.412 8.437-28.239-4.726-1.588 9.491 25.076 4.196-1.402 8.378-25.075-4.196-1.804 10.78 29.821 4.99-1.412 8.437-39.956-6.687 7.616-45.521z"/><path fill="#FFF" d="M449.143 323.281l22.613-84.396 217.133 58.177-22.613 84.397z"/><g fill="#6300FF"><path d="M495.427 270.327l37.582 10.07-2.214 8.262-27.599-7.395-2.49 9.295 24.558 6.58-2.184 8.148-24.558-6.58-5.058 18.877-9.984-2.676 11.947-44.581zM548.385 284.517l-11.946 44.582-9.926-2.659 11.946-44.583 9.926 2.66zM557.564 286.976l9.927 2.66-9.732 36.32 26.107 6.995-2.214 8.263-36.034-9.655 11.946-44.583z"/></g><path fill="#6300FF" d="M631.168 354.483l5.657-21.115-22.151 13.127-12.51-22.168-5.596 20.885-9.639-2.582 12.115-45.215 19.334 35.252 34.485-20.832-12.115 45.215-9.58-2.567z"/></svg>