<svg version="1.1" id="Calque_1" xmlns="http://www.w3.org/2000/svg" x="0" y="0" viewBox="0 0 1218.9 510.2" xml:space="preserve"><style>.st0{fill:#fff}.st1{fill:#c50b50}</style><path transform="rotate(-8.001 1001.406 195.768)" class="st0" d="M821.5 151.1h359.8v89.4H821.5z"/><path class="st1" d="M853.7 223.8c1 6.9 3.9 10.6 9.9 9.7 6.2-.9 8.1-5.2 7.1-12.1L867 195l10.2-1.4 3.7 26.4c1.9 13.3-3 21-16 22.8-12.8 1.8-19.4-4.3-21.2-17.6l10-1.4zM896.1 191l3.1 22.2c1.1 7.5 4.9 14.7 14.4 13.3 9.5-1.3 11.2-9.3 10.2-16.8l-3.1-22.2 10.2-1.4 3.1 22.2c2 13.9-1.8 25.1-19.1 27.5-17.4 2.4-24-7.2-26-21.2l-3.1-22.2 10.3-1.4zM952.4 196.1c1.3 9.3 31.3-2.2 33.8 15.5 1.3 9.1-7.9 15.3-17.9 16.7-20.3 2.9-27.2-11.5-27.2-11.5l8.4-5.4s4.9 9.5 17.2 7.7c5.3-.7 9.4-2.9 9-6.1-1.4-10-31.3 1.5-33.6-15.3-1.1-8.2 6.6-14.7 15.3-15.9 15.9-2.2 22.6 9.7 22.6 9.7l-7.8 6.2s-3.8-8.1-13.6-6.7c-4.3.4-6.6 2.5-6.2 5.1zM1035.1 180.1l-19.6 2.8 5.2 37.2-10.2 1.4-5.2-37.2-19.6 2.8-1.2-8.5 49.5-7 1.1 8.5zM1050.1 169.3l6.4 45.7-10.2 1.4-6.4-45.7 10.2-1.4zM1111.1 187.7s2.1 20.2-20.9 23.5c-15.6 2.2-27.1-6.2-29.1-20-1.9-13.8 7-25 21.9-27.1 19.6-2.8 24.1 12.6 24.1 12.6l-7.8 6.4s-2.3-11.7-15.2-9.9c-8.3 1.2-13.5 7.5-12.2 16.5 1.3 8.9 8.3 13.4 16.8 12.2 13.1-1.8 12.5-12.8 12.5-12.8l9.9-1.4zM1114.6 160.2l38.5-5.4 1.2 8.5-28.4 4 1.3 9.5 25.2-3.5 1.2 8.4-25.2 3.5 1.5 10.8 29.9-4.2 1.2 8.5-40 5.7-6.4-45.8z"/><path transform="scale(.99997) rotate(-3.5 792.123 286.095)" class="st0" d="M668.6 246.4h247.1v79.4H668.6z"/><path class="st1" d="M732.8 270.3c15.6-1 26.6 8.3 27.4 21.5.8 13.3-9 23.6-24.6 24.5l-20.4 1.2-2.8-46.1 20.4-1.1zm2.3 37.3c7.8-.5 14.8-5.5 14.3-15.1-.6-9.6-8.1-14-16-13.6l-10.1.6 1.8 28.8 10-.7zM766.6 268.2l38.8-2.4.5 8.5-28.6 1.7.6 9.6 25.4-1.6.5 8.5-25.4 1.6.7 10.9 30.2-1.8.5 8.5-40.4 2.5-2.8-46zm28.2-5.1l-13.3 3.2-1.1-3.1 11.7-7.6 2.7 7.5zM815.1 265.2l38.8-2.4.5 8.5-28.5 1.7.6 9.6 25.4-1.6.5 8.4L827 291l1.2 19.5-10.3.6-2.8-45.9zM869.9 261.9l2.8 46.1-10.3.6-2.8-46.1 10.3-.6z"/><path transform="rotate(-6.252 918.7 93.367)" class="st0" d="M630.7 49.7h576v87.4h-576z"/><path class="st1" d="M710 123.6s1.4 20.3-21.6 22.8c-15.7 1.7-26.9-7-28.5-20.8-1.5-13.8 7.8-24.8 22.7-26.4 19.7-2.2 23.7 13.4 23.7 13.4l-8 6.1s-1.9-11.7-14.9-10.3c-8.3.9-13.7 7.1-12.7 16.1s7.9 13.7 16.5 12.7c13.1-1.4 12.9-12.4 12.9-12.4l9.9-1.2zM715.3 119.5c-1.4-13.2 7.9-24.8 23.4-26.5s27 7.6 28.5 20.8c1.4 13.2-7.7 24.8-23.3 26.5-15.5 1.7-27.1-7.6-28.6-20.8zm10.8-1.2c1 9.6 8.8 14.2 16.8 13.3 7.8-.9 14.5-7 13.4-16.6-1-9.6-8.8-14.3-16.7-13.5-8 .9-14.5 7.2-13.5 16.8zM777.6 135.8L772.4 89l38.7 23.1-2.8-26.1 10.3-1.1 5.1 46.4-38.8-22.6 2.9 26.1-10.2 1zM828.2 83.8l38.7-4.2.9 8.5-28.4 3.1 1 9.6 25.3-2.8.9 8.4-25.3 2.8 2.1 19.4-10.3 1.1-4.9-45.9zM872.5 78.9l38.7-4.2.9 8.5-28.5 3.1 1 9.6 25.3-2.8.9 8.4-25.3 2.8 1.2 10.9 30.1-3.3.9 8.5-40.3 4.4-4.9-45.9zm27.9-6.4l-13.1 3.8-1.2-3 11.3-8.2 3 7.4zM925.8 119.5l-5-45.9 25.8-2.8c12.5-1.4 20.8 3.2 21.7 11.8.8 7.4-4.7 13.1-14.6 15.2 10.1-.4 15.8 15.4 20.3 16.4l-13.2 1.4c-4.7-1-7.5-17.6-20.9-16.1l-5.8.6 2 18.2-10.3 1.2zm7.4-27.7l15.4-1.7c5.7-.6 9.8-2.9 9.4-6.5-.4-3.6-4.9-4.9-10.6-4.3L932.1 81l1.1 10.8zM975.8 67.6l38.7-4.2.9 8.5-28.5 3.1 1 9.6 25.3-2.8.9 8.4-25.2 2.8 1.2 10.9 30.1-3.3.9 8.5-40.3 4.4-5-45.9zM1029 108.2l-5.1-46.8 38.7 23.1-2.9-26.2 10.3-1.1 5.1 46.4-38.7-22.6 2.9 26.1-10.3 1.1zM1130.6 77.5s1.4 20.3-21.6 22.8c-15.7 1.7-26.9-7-28.5-20.8-1.5-13.8 7.8-24.8 22.7-26.4 19.7-2.2 23.7 13.4 23.7 13.4l-8 6.1s-1.9-11.7-14.9-10.3c-8.3.9-13.7 7.1-12.7 16.1s7.9 13.7 16.5 12.7c13.1-1.4 12.9-12.4 12.9-12.4l9.9-1.2zM1134.9 50.2l38.7-4.2.9 8.5-28.5 3.1 1 9.6 25.3-2.8.9 8.4-25.3 2.8 1.2 10.9 30.1-3.3.9 8.5-40.3 4.4-4.9-45.9z"/><path transform="rotate(-19.5 725.336 210.013)" class="st0" d="M537.6 165.3h375.5v89.4H537.6z"/><path class="st1" d="M569.3 244.7l36.7-13 2.9 8.1-27 9.6 3.2 9.1 24-8.5 2.8 8-24 8.5 3.6 10.3 28.5-10.1 2.9 8.1-38.2 13.5-15.4-43.6zm25.7-12.6l-11.9 6.7-1.9-2.7 9.1-10.5 4.7 6.5zM642.2 244l24.9-8.8 7.5 21.2-8.6 3-3.5-10c0 .6-.5 12.3-13.3 16.9-10.5 3.7-23.6 0-28.9-15-4.6-13.1 1.9-25.9 16.2-31 18.4-6.5 25.9 7.7 25.9 7.7l-6.4 7.8s-4.7-10.9-16.6-6.7c-8.3 2.9-11.9 10.1-8.9 18.7 3.2 9.1 11.4 11.9 18.7 9.3 8.5-3 9.3-9.6 9.3-9.6L645 252l-2.8-8zM679.2 254.7l11-53.8 42.4 34.9-11.3 4-6.2-5.4-23.3 8.2-1.4 8.1-11.2 4zm14.3-21.7l14.2-5-11.7-10.3-2.5 15.3zM722.2 190.5l9.7-3.4 12.6 35.4 25.5-9 2.9 8.1-35.3 12.4-15.4-43.5zM772.3 172.8l15.4 43.5-9.7 3.4-15.4-43.5 9.7-3.4zM827.8 162.2l-18.7 6.6 12.6 35.4-9.7 3.5-12.6-35.4-18.7 6.6-2.9-8.1 47.1-16.7 2.9 8.1zM830.7 152.1l36.7-13 2.9 8.1-27 9.6 3.2 9.1 24-8.5 2.8 8-24 8.5 3.6 10.3 28.5-10.1 2.9 8.1-38.2 13.5-15.4-43.6zm25.7-12.6l-11.9 6.7-1.9-2.7 9.1-10.5 4.7 6.5z"/><path transform="rotate(-82.501 201.048 335.413)" class="st0" d="M156.3 147.7h89.4v375.5h-89.4z"/><path class="st1" d="M37.8 294.3l38.6 5.1-1.1 8.5-28.4-3.7-1.3 9.5 25.2 3.3-1.1 8.4-25.2-3.3-1.4 10.8 30 3.9-1.1 8.5-40.2-5.3 6-45.7zm28.6.4l-13.7.6-.5-3.2 12.9-5.2 1.3 7.8zM131.4 315.3l-19.7-2.6-4.9 37.3-10.2-1.3 4.9-37.3-19.7-2.6 1.1-8.5 49.6 6.5-1.1 8.5zM174.5 339.1l-29.2-3.8-2.6 19.4-10.2-1.3 6-45.8 10.2 1.3-2.4 18 29.2 3.8 2.4-18 10.2 1.3-6 45.8-10.2-1.3 2.6-19.4zM208 316.7l-6 45.8-10.2-1.3 6-45.8 10.2 1.3zM245.9 381.6c-6.9-.9-10.5-5-9.9-9.6.3-2.2 1.2-3.4 1.8-4-.8 0-1.5-.1-2.3-.2-16.1-2.1-25.2-13.3-23.4-27.1 1.8-13.8 13.5-22.2 29.6-20.1s25.1 13.3 23.3 27.1c-1.5 11.4-9.7 19.2-21.5 20.3-.5.2-1.4.5-1.5 1.6-.3 1.9 2.7 3 6.3 3.5 4.2.6 7.3 0 7.3 0l-1.1 8.7c-.1-.2-2.9.5-8.6-.2zm-23-39.6c-1.2 9 4.7 15.2 13.8 16.4 9 1.2 16.3-3.3 17.5-12.3s-4.6-15.3-13.7-16.5c-9.1-1.2-16.4 3.5-17.6 12.4zM285.6 326.9l-2.9 22.2c-1 7.5.8 15.4 10.3 16.7 9.5 1.2 13.3-5.9 14.3-13.5l2.9-22.2 10.2 1.3-2.9 22.2c-1.8 14-8.4 23.7-25.8 21.4-17.4-2.3-21.2-13.4-19.3-27.4l2.9-22.2 10.3 1.5zM329.6 332.7l38.6 5.1-1.1 8.5-28.4-3.7-1.3 9.5 25.2 3.3-1.1 8.4-25.2-3.3-1.4 10.8 30 3.9-1.1 8.5-40.2-5.3 6-45.7z"/><path transform="rotate(-19.5 453.552 207.093)" class="st0" d="M310.8 162.4h285.5v89.4H310.8z"/><g><path class="st1" d="M349.9 223.2l36.7-13 2.9 8.1-26.9 9.5 3.2 9.1 24-8.5 2.8 8-24 8.5 6.5 18.4-9.7 3.5-15.5-43.6zM397.5 230.9c-4.4-12.5 2-26 16.7-31.2s28 1.2 32.5 13.8c4.4 12.5-1.8 25.9-16.6 31.1-14.7 5.2-28.1-1.2-32.6-13.7zm10.3-3.7c3.2 9.1 11.8 11.8 19.4 9.1 7.4-2.6 12.5-10.2 9.3-19.2-3.2-9.1-11.9-11.9-19.4-9.3-7.6 2.7-12.5 10.4-9.3 19.4zM452.4 211.5c-4.4-12.5 2-26 16.7-31.2s28 1.2 32.5 13.8c4.4 12.5-1.8 25.9-16.6 31.1-14.8 5.2-28.2-1.2-32.6-13.7zm10.2-3.7c3.2 9.1 11.8 11.8 19.4 9.1 7.4-2.6 12.5-10.2 9.3-19.2-3.2-9.1-11.9-11.9-19.4-9.3-7.6 2.7-12.5 10.4-9.3 19.4zM520.6 162.7c14.7-5.2 27.8.6 32.3 13.2 4.4 12.5-2.1 25.1-16.9 30.4l-19.3 6.8-15.4-43.5 19.3-6.9zM533 198c7.4-2.6 12.8-9.4 9.5-18.4-3.2-9.1-11.6-11.3-19.1-8.7l-9.6 3.3 9.6 27.2 9.6-3.4z"/></g><path transform="rotate(-75.001 322.408 284.273)" class="st0" d="M282.7 160.7h79.4v247.1h-79.4z"/><g><path class="st1" d="M270.6 298.1l5.7-21.1-22.2 13.1-12.5-22.2-5.6 20.9-9.6-2.6 12.1-45.2 19.3 35.3 34.5-20.8-12.1 45.2-9.6-2.6z"/></g><g><path class="st1" d="M293.8 280.5c3.4-12.9 16.3-20.3 31.4-16.2 15.1 4 22.4 16.9 19 29.7-3.4 12.9-16.2 20.3-31.3 16.3-15.1-4.1-22.5-16.9-19.1-29.8zm10.5 2.8c-2.5 9.3 3.1 16.4 10.9 18.5 7.6 2 16-1.3 18.5-10.6 2.5-9.3-3-16.5-10.7-18.6-7.8-2.1-16.2 1.4-18.7 10.7zM367.9 276.4L356 321l-9.9-2.7 11.9-44.6 9.9 2.7zM384.6 294.2c-2.4 9.1 29.7 10.2 25.1 27.4-2.4 8.8-13.3 11-23 8.3-19.8-5.3-20.5-21.2-20.5-21.2l9.8-1.7s.8 10.6 12.8 13.8c5.2 1.4 9.8 1 10.7-2.1 2.6-9.8-29.4-10.8-25-27.2 2.1-8 11.8-10.9 20.3-8.6 15.5 4.2 17 17.7 17 17.7l-9.6 2.6s-.3-8.9-9.9-11.5c-4.1-1-7 0-7.7 2.5z"/></g><path transform="rotate(-8.001 212.254 179.897)" class="st0" d="M29.4 135.2h365.7v89.4H29.4z"/><g><path class="st1" d="M64.6 207.9c1 6.9 3.9 10.6 9.9 9.7 6.2-.9 8.1-5.2 7.1-12.1l-3.7-26.4 10.2-1.4 3.7 26.4c1.9 13.3-3 21-16 22.8-12.8 1.8-19.4-4.3-21.2-17.6l10-1.4zM107 175.1l3.1 22.2c1.1 7.5 4.9 14.7 14.4 13.3 9.5-1.3 11.2-9.3 10.2-16.8l-3.1-22.2 10.2-1.4 3.1 22.2c2 13.9-1.8 25.1-19.1 27.5-17.4 2.4-24-7.2-26-21.2l-3.1-22.2 10.3-1.4zM163.2 180.2c1.3 9.3 31.3-2.2 33.8 15.5 1.3 9.1-7.9 15.3-17.9 16.7-20.3 2.9-27.2-11.5-27.2-11.5l8.4-5.4s4.9 9.5 17.2 7.7c5.3-.7 9.4-2.9 9-6.1-1.4-10-31.3 1.5-33.6-15.3-1.1-8.2 6.6-14.7 15.3-15.9 15.9-2.2 22.6 9.7 22.6 9.7l-7.8 6.2s-3.8-8.1-13.6-6.7c-4.2.4-6.5 2.5-6.2 5.1zM246 164.2l-19.6 2.8 5.2 37.2-10.2 1.4-5.2-37.2-19.6 2.8-1.2-8.5 49.5-7 1.1 8.5zM261 153.4l6.4 45.7-10.2 1.4-6.4-45.7 10.2-1.4zM322 171.8s2.1 20.2-20.9 23.5c-15.6 2.2-27.1-6.2-29.1-20-1.9-13.8 7-25 21.9-27.1 19.6-2.8 24.1 12.6 24.1 12.6l-7.8 6.4s-2.3-11.7-15.2-9.9c-8.3 1.2-13.5 7.5-12.2 16.5 1.3 8.9 8.3 13.4 16.8 12.2 13.1-1.8 12.5-12.8 12.5-12.8l9.9-1.4zM325.4 144.4L364 139l1.2 8.5-28.4 4 1.3 9.5 25.2-3.5 1.2 8.4-25.2 3.5 1.5 10.8 29.9-4.2 1.2 8.5-40.1 5.6-6.4-45.7z"/></g><path transform="rotate(-14.999 423.632 406.321)" class="st0" d="M240.8 361.6h365.7V451H240.8z"/><g><path class="st1" d="M262.2 429.5l11.6-3.1 23.4 24.1 8.2-32.6 11.6-3.1-15.2 52.8-39.6-38.1z"/></g><g><path class="st1" d="M321.8 413.5l37.6-10.1 2.2 8.3-27.7 7.4 2.5 9.3 24.6-6.6 2.2 8.2-24.6 6.6 2.8 10.6 29.2-7.8 2.2 8.3-39.1 10.5-11.9-44.7zm26.7-10.5l-12.4 5.8-1.7-2.8 9.9-9.8 4.2 6.8zM394.6 418.5l25.5-6.8 5.8 21.7-8.8 2.4-2.8-10.3c-.1.6-1.5 12.3-14.5 15.8-10.8 2.9-23.5-1.9-27.6-17.3-3.6-13.4 3.9-25.7 18.6-29.7 18.8-5 25.2 9.7 25.2 9.7l-7 7.3s-3.9-11.3-16-8c-8.5 2.3-12.7 9.2-10.3 17.9 2.5 9.3 10.4 12.8 17.9 10.8 8.7-2.3 10-8.9 10-8.9l-13.8 3.7-2.2-8.3zM430.7 432.2l15.2-52.8 39.5 38.1-11.6 3.1-5.7-5.9-23.9 6.4-2 8-11.5 3.1zm16-20.6l14.6-3.9-10.8-11.2-3.8 15.1zM490.6 416.1l-12.2-45.4 41.8 17-6.8-25.4 10-2.7 12.1 45-41.7-16.5 6.8 25.4-10 2.6zM532.7 357l37.6-10.1 2.2 8.3-27.7 7.4 2.5 9.3 24.6-6.6 2.2 8.2-24.6 6.6 2.8 10.6 29.2-7.8 2.2 8.3-39.1 10.5-11.9-44.7z"/></g><path transform="rotate(-82.501 1020.527 405.726)" class="st0" d="M975.8 222.9h89.4v365.7h-89.4z"/><g><path class="st1" d="M862.4 365.2l11.9 1.6 12.4 31.2 20-27 11.9 1.6-34.2 42.9-22-50.3z"/></g><g><path class="st1" d="M923.7 373.3l38.6 5.1-1.1 8.5-28.4-3.7-1.3 9.5 25.2 3.3-1.1 8.4-25.2-3.3-1.4 10.8 30 3.9-1.1 8.5-40.2-5.3 6-45.7zm28.6.4l-13.7.6-.5-3.2 12.9-5.2 1.3 7.8zM989 405.7l26.1 3.4-2.9 22.3-9-1.2 1.4-10.5c-.3.5-6 10.8-19.5 9-11.1-1.5-21-10.7-18.9-26.5 1.8-13.8 13.5-22.3 28.6-20.3 19.3 2.5 19.6 18.6 19.6 18.6l-9.2 4.1s.7-11.9-11.8-13.5c-8.7-1.1-15.2 3.6-16.4 12.6-1.3 9.5 4.8 15.8 12.4 16.8 8.9 1.2 12.6-4.4 12.6-4.4l-14.1-1.9 1.1-8.5zM1017.1 432.1l34.2-42.9 22 50.3-11.9-1.6-3-7.6-24.5-3.2-4.9 6.6-11.9-1.6zm22.6-12.8l15 2-5.7-14.5-9.3 12.5zM1078.5 440.2l6.1-46.6 32.1 31.7 3.4-26.1 10.2 1.3-6.1 46.2-32.3-31.2-3.4 26-10-1.3zM1140.1 401.8l38.6 5.1-1.1 8.5-28.4-3.7-1.3 9.5 25.2 3.3-1.1 8.4-25.2-3.3-1.4 10.8 30 3.9-1.1 8.5-40.2-5.3 6-45.7z"/></g><path class="st0" d="M673.4 360.4l27.3 83 376.8-125.6-27.4-83z"/><path transform="rotate(-80.503 350.171 102.07)" class="st0" d="M306.5-203.8h87.4V408h-87.4z"/><g><path class="st1" d="M62.9 81.1l35.7-41.7 20.2 51.1-11.8-2-2.7-7.7-24.4-4.1-5.1 6.4-11.9-2zM86 69l14.9 2.5-5.2-14.7L86 69zM124.1 91.4l7.8-46.4 31 32.8 4.3-26 10.2 1.7-7.7 46-31.2-32.3-4.3 25.9-10.1-1.7zM231.3 71.2l-19.6-3.3-6.2 37.1-10.2-1.7 6.2-37.1-19.5-3.3 1.4-8.4 49.3 8.3-1.4 8.4zM248.8 65.4l-7.6 45.5-10.1-1.7 7.6-45.5 10.1 1.7zM267.1 81.6c-1.5 9.3 30.5 7.3 27.6 24.9-1.5 9-12.2 12.2-22.1 10.5-20.2-3.4-22.5-19.1-22.5-19.1l9.6-2.7s1.8 10.5 14.1 12.5c5.3.9 9.9 0 10.4-3.1 1.7-10-30.3-8-27.5-24.7 1.4-8.1 10.7-12 19.4-10.5 15.8 2.6 18.6 16 18.6 16l-9.3 3.6s-1.2-8.9-11-10.5c-4-.8-6.8.5-7.3 3.1z"/></g><g><path class="st1" d="M312.8 104.4l-3 18-10.2-1.7 7.6-45.5 25.6 4.3c12.4 2.1 19.1 8.7 17.7 17.2-1.4 8.3-9.9 12.3-22.3 10.2l-15.4-2.5zm1.5-8.4l15.3 2.6c5.7 1 10.3-.1 10.9-3.7s-3.4-6-9-7l-15.4-2.6-1.8 10.7z"/></g><g><path class="st1" d="M357.8 83.7l38.4 6.4-1.4 8.4-28.2-4.7-1.6 9.5 25.1 4.2-1.4 8.4-25.1-4.2-1.8 10.8 29.8 5-1.4 8.4-40-6.7 7.6-45.5zm28.6 1.4l-13.7.1-.4-3.3 13.1-4.8 1 8zM448.1 125.8s-4.1 19.9-27 16.1c-15.6-2.6-24-14.1-21.7-27.8s14.2-21.8 29-19.3c19.6 3.3 19.2 19.3 19.2 19.3l-9.4 3.7s1.3-11.8-11.5-14c-8.3-1.4-15.1 3.1-16.6 12s3.9 15.3 12.4 16.7c13 2.2 15.8-8.4 15.8-8.4l9.8 1.7zM469.8 102.4l-7.6 45.5-10.1-1.7 7.6-45.5 10.1 1.7zM488.1 118.6c-1.5 9.3 30.5 7.3 27.6 24.9-1.5 9-12.2 12.2-22.1 10.5-20.2-3.4-22.5-19.1-22.5-19.1l9.6-2.7s1.8 10.5 14.1 12.5c5.3.9 9.9 0 10.4-3.1 1.7-10-30.3-8-27.5-24.7 1.4-8.1 10.7-12 19.4-10.5 15.8 2.6 18.6 16 18.6 16l-9.3 3.6s-1.2-8.9-11-10.5c-4-.8-6.9.5-7.3 3.1z"/></g><g><path class="st1" d="M565.8 165.3l3.6-21.6-20.8 15.2-14.5-20.9-3.6 21.3-9.8-1.6 7.7-46.2 22.6 33.2 32.3-24-7.7 46.2-9.8-1.6z"/></g><g><path class="st1" d="M592.8 123l38.4 6.4-1.4 8.4-28.2-4.7-1.6 9.5 25.1 4.2-1.4 8.4-25.1-4.2-1.8 10.8 29.8 5-1.4 8.4-40-6.7 7.6-45.5z"/></g><path transform="rotate(-75.001 569.147 310.175)" class="st0" d="M525.4 197.8h87.4v224.8h-87.4z"/><g><path class="st1" d="M495.5 270.4l37.6 10.1-2.2 8.3-27.6-7.4-2.5 9.3 24.6 6.6-2.2 8.1-24.6-6.6-5.1 18.9-10-2.7 12-44.6zM548.5 284.6l-11.9 44.6-9.9-2.7 11.9-44.6 9.9 2.7zM557.7 287l9.9 2.7-9.7 36.3 26.1 7-2.2 8.3-36-9.7 11.9-44.6z"/></g><g><path class="st1" d="M631.3 354.5l5.7-21.1-22.2 13.1-12.5-22.2-5.6 20.9-9.6-2.6 12.1-45.2 19.3 35.3 34.5-20.8-12.1 45.2-9.6-2.6z"/></g><g><path class="st1" d="M712.4 422.5l10.9-53.4 42.1 34.7-11.2 4-6.1-5.4-23.1 8.2-1.3 8-11.3 3.9zm14.2-21.6l14.1-5-11.6-10.2-2.5 15.2zM770.5 401.9l-15.6-44.1 42.7 13.5-8.7-24.6 9.7-3.4L814 387l-42.6-13 8.7 24.6-9.6 3.3zM817.3 336.8l15.3 43.2-9.6 3.4-15.3-43.2 9.6-3.4zM884.3 361.6l-7.2-20.5-10.7 23.2-22.7-11.1 7.2 20.2-9.3 3.3-15.7-43.7 35.7 18 16.5-36.5 15.5 43.8-9.3 3.3zM898.7 356.6l10.9-53.4 42.1 34.7-11.2 4-6.1-5.4-23.1 8.2-1.3 8-11.3 3.9zm14.2-21.7l14.1-5-11.6-10.2-2.5 15.2zM947.1 290.8l7.4 21c2.5 7.1 7.7 13.3 16.7 10.1 9-3.2 9.1-11.2 6.6-18.4l-7.4-21 9.7-3.4 7.4 21c4.7 13.2 3.3 24.8-13.2 30.6-16.4 5.8-24.8-2.3-29.5-15.5l-7.4-21 9.7-3.4zM1019.3 296l-7.7 20.6-12.2 4.3 11.8-29.1-26.3-14.3 12.8-4.5 17.1 10.8 6.3-19.1 12.8-4.5L1023 288l27.1 15.1-12.2 4.3-18.6-11.4z"/></g></svg>