<?xml version="1.0" encoding="utf-8"?>
<!-- Generator: Adobe Illustrator 22.1.0, SVG Export Plug-In . SVG Version: 6.00 Build 0)  -->
<svg version="1.1" id="Calque_1" xmlns="http://www.w3.org/2000/svg" xmlns:xlink="http://www.w3.org/1999/xlink" x="0px" y="0px"
	 viewBox="0 0 1218.9 510.2" style="enable-background:new 0 0 1218.9 510.2;" xml:space="preserve">
<style type="text/css">
	.st0{fill:#FFFFFF;}
	.st1{fill:#00D2B9;}
	.st2{fill:#00CDB2;}
</style>
<g>
	
		<rect x="821.5" y="151.1" transform="matrix(0.9903 -0.1392 0.1392 0.9903 -17.5019 141.3016)" class="st0" width="359.8" height="89.4"/>
	<g>
		<path class="st1" d="M853.7,223.8c1,6.9,3.9,10.6,9.9,9.7c6.2-0.9,8.1-5.2,7.1-12.1L867,195l10.2-1.4l3.7,26.4
			c1.9,13.3-3,21-16,22.8c-12.8,1.8-19.4-4.3-21.2-17.6L853.7,223.8z"/>
		<path class="st1" d="M896.1,191l3.1,22.2c1.1,7.5,4.9,14.7,14.4,13.3c9.5-1.3,11.2-9.3,10.2-16.8l-3.1-22.2l10.2-1.4l3.1,22.2
			c2,13.9-1.8,25.1-19.1,27.5c-17.4,2.4-24-7.2-26-21.2l-3.1-22.2L896.1,191z"/>
		<path class="st1" d="M952.4,196.1c1.3,9.3,31.3-2.2,33.8,15.5c1.3,9.1-7.9,15.3-17.9,16.7c-20.3,2.9-27.2-11.5-27.2-11.5l8.4-5.4
			c0,0,4.9,9.5,17.2,7.7c5.3-0.7,9.4-2.9,9-6.1c-1.4-10-31.3,1.5-33.6-15.3c-1.1-8.2,6.6-14.7,15.3-15.9c15.9-2.2,22.6,9.7,22.6,9.7
			l-7.8,6.2c0,0-3.8-8.1-13.6-6.7C954.3,191.4,952,193.5,952.4,196.1z"/>
		<path class="st1" d="M1035.1,180.1l-19.6,2.8l5.2,37.2l-10.2,1.4l-5.2-37.2l-19.6,2.8l-1.2-8.5l49.5-7L1035.1,180.1z"/>
		<path class="st1" d="M1050.1,169.3l6.4,45.7l-10.2,1.4l-6.4-45.7L1050.1,169.3z"/>
		<path class="st1" d="M1111.1,187.7c0,0,2.1,20.2-20.9,23.5c-15.6,2.2-27.1-6.2-29.1-20c-1.9-13.8,7-25,21.9-27.1
			c19.6-2.8,24.1,12.6,24.1,12.6l-7.8,6.4c0,0-2.3-11.7-15.2-9.9c-8.3,1.2-13.5,7.5-12.2,16.5c1.3,8.9,8.3,13.4,16.8,12.2
			c13.1-1.8,12.5-12.8,12.5-12.8L1111.1,187.7z"/>
		<path class="st1" d="M1114.6,160.2l38.5-5.4l1.2,8.5l-28.4,4l1.3,9.5l25.2-3.5l1.2,8.4l-25.2,3.5l1.5,10.8l29.9-4.2l1.2,8.5
			l-40,5.7L1114.6,160.2z"/>
	</g>
	
		<rect x="668.6" y="246.4" transform="matrix(0.9981 -6.105115e-02 6.105115e-02 0.9981 -15.9888 48.8937)" class="st0" width="247.1" height="79.4"/>
	<g>
		<path class="st1" d="M732.8,270.3c15.6-1,26.6,8.3,27.4,21.5c0.8,13.3-9,23.6-24.6,24.5l-20.4,1.2l-2.8-46.1L732.8,270.3z
			 M735.1,307.6c7.8-0.5,14.8-5.5,14.3-15.1c-0.6-9.6-8.1-14-16-13.6l-10.1,0.6l1.8,28.8L735.1,307.6z"/>
		<path class="st1" d="M766.6,268.2l38.8-2.4l0.5,8.5l-28.6,1.7l0.6,9.6l25.4-1.6l0.5,8.5l-25.4,1.6l0.7,10.9l30.2-1.8l0.5,8.5
			l-40.4,2.5L766.6,268.2z M794.8,263.1l-13.3,3.2l-1.1-3.1l11.7-7.6L794.8,263.1z"/>
		<path class="st1" d="M815.1,265.2l38.8-2.4l0.5,8.5l-28.5,1.7l0.6,9.6l25.4-1.6l0.5,8.4L827,291l1.2,19.5l-10.3,0.6L815.1,265.2z"
			/>
		<path class="st1" d="M869.9,261.9l2.8,46.1l-10.3,0.6l-2.8-46.1L869.9,261.9z"/>
	</g>
	
		<rect x="630.7" y="49.7" transform="matrix(0.9941 -0.1089 0.1089 0.9941 -4.7041 100.6016)" class="st0" width="576" height="87.4"/>
	<g>
		<path class="st1" d="M710,123.6c0,0,1.4,20.3-21.6,22.8c-15.7,1.7-26.9-7-28.5-20.8c-1.5-13.8,7.8-24.8,22.7-26.4
			c19.7-2.2,23.7,13.4,23.7,13.4l-8,6.1c0,0-1.9-11.7-14.9-10.3c-8.3,0.9-13.7,7.1-12.7,16.1s7.9,13.7,16.5,12.7
			c13.1-1.4,12.9-12.4,12.9-12.4L710,123.6z"/>
		<path class="st1" d="M715.3,119.5c-1.4-13.2,7.9-24.8,23.4-26.5s27,7.6,28.5,20.8c1.4,13.2-7.7,24.8-23.3,26.5
			C728.4,142,716.8,132.7,715.3,119.5z M726.1,118.3c1,9.6,8.8,14.2,16.8,13.3c7.8-0.9,14.5-7,13.4-16.6c-1-9.6-8.8-14.3-16.7-13.5
			C731.6,102.4,725.1,108.7,726.1,118.3z"/>
		<path class="st1" d="M777.6,135.8L772.4,89l38.7,23.1L808.3,86l10.3-1.1l5.1,46.4l-38.8-22.6l2.9,26.1L777.6,135.8z"/>
		<path class="st1" d="M828.2,83.8l38.7-4.2l0.9,8.5l-28.4,3.1l1,9.6l25.3-2.8l0.9,8.4l-25.3,2.8l2.1,19.4l-10.3,1.1L828.2,83.8z"/>
		<path class="st1" d="M872.5,78.9l38.7-4.2l0.9,8.5l-28.5,3.1l1,9.6l25.3-2.8l0.9,8.4l-25.3,2.8l1.2,10.9l30.1-3.3l0.9,8.5
			l-40.3,4.4L872.5,78.9z M900.4,72.5l-13.1,3.8l-1.2-3l11.3-8.2L900.4,72.5z"/>
		<path class="st1" d="M925.8,119.5l-5-45.9l25.8-2.8c12.5-1.4,20.8,3.2,21.7,11.8c0.8,7.4-4.7,13.1-14.6,15.2
			c10.1-0.4,15.8,15.4,20.3,16.4l-13.2,1.4c-4.7-1-7.5-17.6-20.9-16.1l-5.8,0.6l2,18.2L925.8,119.5z M933.2,91.8l15.4-1.7
			c5.7-0.6,9.8-2.9,9.4-6.5c-0.4-3.6-4.9-4.9-10.6-4.3L932.1,81L933.2,91.8z"/>
		<path class="st1" d="M975.8,67.6l38.7-4.2l0.9,8.5L986.9,75l1,9.6l25.3-2.8l0.9,8.4L988.9,93l1.2,10.9l30.1-3.3l0.9,8.5l-40.3,4.4
			L975.8,67.6z"/>
		<path class="st1" d="M1029,108.2l-5.1-46.8l38.7,23.1l-2.9-26.2l10.3-1.1l5.1,46.4L1036.4,81l2.9,26.1L1029,108.2z"/>
		<path class="st1" d="M1130.6,77.5c0,0,1.4,20.3-21.6,22.8c-15.7,1.7-26.9-7-28.5-20.8c-1.5-13.8,7.8-24.8,22.7-26.4
			c19.7-2.2,23.7,13.4,23.7,13.4l-8,6.1c0,0-1.9-11.7-14.9-10.3c-8.3,0.9-13.7,7.1-12.7,16.1s7.9,13.7,16.5,12.7
			c13.1-1.4,12.9-12.4,12.9-12.4L1130.6,77.5z"/>
		<path class="st1" d="M1134.9,50.2l38.7-4.2l0.9,8.5l-28.5,3.1l1,9.6l25.3-2.8l0.9,8.4l-25.3,2.8l1.2,10.9l30.1-3.3l0.9,8.5
			l-40.3,4.4L1134.9,50.2z"/>
	</g>
	
		<rect x="537.6" y="165.3" transform="matrix(0.9426 -0.3338 0.3338 0.9426 -28.4981 254.1632)" class="st0" width="375.5" height="89.4"/>
	<g>
		<path class="st1" d="M569.3,244.7l36.7-13l2.9,8.1l-27,9.6l3.2,9.1l24-8.5l2.8,8l-24,8.5l3.6,10.3l28.5-10.1l2.9,8.1l-38.2,13.5
			L569.3,244.7z M595,232.1l-11.9,6.7l-1.9-2.7l9.1-10.5L595,232.1z"/>
		<path class="st1" d="M642.2,244l24.9-8.8l7.5,21.2l-8.6,3l-3.5-10c0,0.6-0.5,12.3-13.3,16.9c-10.5,3.7-23.6,0-28.9-15
			c-4.6-13.1,1.9-25.9,16.2-31c18.4-6.5,25.9,7.7,25.9,7.7l-6.4,7.8c0,0-4.7-10.9-16.6-6.7c-8.3,2.9-11.9,10.1-8.9,18.7
			c3.2,9.1,11.4,11.9,18.7,9.3c8.5-3,9.3-9.6,9.3-9.6L645,252L642.2,244z"/>
		<path class="st1" d="M679.2,254.7l11-53.8l42.4,34.9l-11.3,4l-6.2-5.4l-23.3,8.2l-1.4,8.1L679.2,254.7z M693.5,233l14.2-5
			L696,217.7L693.5,233z"/>
		<path class="st1" d="M722.2,190.5l9.7-3.4l12.6,35.4l25.5-9l2.9,8.1L737.6,234L722.2,190.5z"/>
		<path class="st1" d="M772.3,172.8l15.4,43.5l-9.7,3.4l-15.4-43.5L772.3,172.8z"/>
		<path class="st1" d="M827.8,162.2l-18.7,6.6l12.6,35.4l-9.7,3.5l-12.6-35.4l-18.7,6.6l-2.9-8.1l47.1-16.7L827.8,162.2z"/>
		<path class="st1" d="M830.7,152.1l36.7-13l2.9,8.1l-27,9.6l3.2,9.1l24-8.5l2.8,8l-24,8.5l3.6,10.3l28.5-10.1l2.9,8.1l-38.2,13.5
			L830.7,152.1z M856.4,139.5l-11.9,6.7l-1.9-2.7l9.1-10.5L856.4,139.5z"/>
	</g>
	
		<rect x="156.3" y="147.7" transform="matrix(0.1305 -0.9914 0.9914 0.1305 -157.7267 490.9438)" class="st0" width="89.4" height="375.5"/>
	<g>
		<path class="st1" d="M37.8,294.3l38.6,5.1l-1.1,8.5l-28.4-3.7l-1.3,9.5l25.2,3.3l-1.1,8.4l-25.2-3.3l-1.4,10.8l30,3.9l-1.1,8.5
			L31.8,340L37.8,294.3z M66.4,294.7l-13.7,0.6l-0.5-3.2l12.9-5.2L66.4,294.7z"/>
		<path class="st1" d="M131.4,315.3l-19.7-2.6l-4.9,37.3l-10.2-1.3l4.9-37.3l-19.7-2.6l1.1-8.5l49.6,6.5L131.4,315.3z"/>
		<path class="st1" d="M174.5,339.1l-29.2-3.8l-2.6,19.4l-10.2-1.3l6-45.8l10.2,1.3l-2.4,18l29.2,3.8l2.4-18l10.2,1.3l-6,45.8
			l-10.2-1.3L174.5,339.1z"/>
		<path class="st1" d="M208,316.7l-6,45.8l-10.2-1.3l6-45.8L208,316.7z"/>
		<path class="st1" d="M245.9,381.6c-6.9-0.9-10.5-5-9.9-9.6c0.3-2.2,1.2-3.4,1.8-4c-0.8,0-1.5-0.1-2.3-0.2
			c-16.1-2.1-25.2-13.3-23.4-27.1c1.8-13.8,13.5-22.2,29.6-20.1s25.1,13.3,23.3,27.1c-1.5,11.4-9.7,19.2-21.5,20.3
			c-0.5,0.2-1.4,0.5-1.5,1.6c-0.3,1.9,2.7,3,6.3,3.5c4.2,0.6,7.3,0,7.3,0l-1.1,8.7C254.4,381.6,251.6,382.3,245.9,381.6z M222.9,342
			c-1.2,9,4.7,15.2,13.8,16.4c9,1.2,16.3-3.3,17.5-12.3s-4.6-15.3-13.7-16.5C231.4,328.4,224.1,333.1,222.9,342z"/>
		<path class="st1" d="M285.6,326.9l-2.9,22.2c-1,7.5,0.8,15.4,10.3,16.7c9.5,1.2,13.3-5.9,14.3-13.5l2.9-22.2l10.2,1.3l-2.9,22.2
			c-1.8,14-8.4,23.7-25.8,21.4c-17.4-2.3-21.2-13.4-19.3-27.4l2.9-22.2L285.6,326.9z"/>
		<path class="st1" d="M329.6,332.7l38.6,5.1l-1.1,8.5l-28.4-3.7l-1.3,9.5l25.2,3.3l-1.1,8.4l-25.2-3.3l-1.4,10.8l30,3.9l-1.1,8.5
			l-40.2-5.3L329.6,332.7z"/>
	</g>
	
		<rect x="310.8" y="162.4" transform="matrix(0.9426 -0.3338 0.3338 0.9426 -43.1126 163.2744)" class="st0" width="285.5" height="89.4"/>
	<g>
		<path class="st1" d="M349.9,223.2l36.7-13l2.9,8.1l-26.9,9.5l3.2,9.1l24-8.5l2.8,8l-24,8.5l6.5,18.4l-9.7,3.5L349.9,223.2z"/>
		<path class="st1" d="M397.5,230.9c-4.4-12.5,2-26,16.7-31.2s28,1.2,32.5,13.8c4.4,12.5-1.8,25.9-16.6,31.1
			C415.4,249.8,402,243.4,397.5,230.9z M407.8,227.2c3.2,9.1,11.8,11.8,19.4,9.1c7.4-2.6,12.5-10.2,9.3-19.2
			c-3.2-9.1-11.9-11.9-19.4-9.3C409.5,210.5,404.6,218.2,407.8,227.2z"/>
		<path class="st1" d="M452.4,211.5c-4.4-12.5,2-26,16.7-31.2s28,1.2,32.5,13.8c4.4,12.5-1.8,25.9-16.6,31.1
			C470.2,230.4,456.8,224,452.4,211.5z M462.6,207.8c3.2,9.1,11.8,11.8,19.4,9.1c7.4-2.6,12.5-10.2,9.3-19.2
			c-3.2-9.1-11.9-11.9-19.4-9.3C464.3,191.1,459.4,198.8,462.6,207.8z"/>
		<path class="st1" d="M520.6,162.7c14.7-5.2,27.8,0.6,32.3,13.2c4.4,12.5-2.1,25.1-16.9,30.4l-19.3,6.8l-15.4-43.5L520.6,162.7z
			 M533,198c7.4-2.6,12.8-9.4,9.5-18.4c-3.2-9.1-11.6-11.3-19.1-8.7l-9.6,3.3l9.6,27.2L533,198z"/>
	</g>
	
		<rect x="282.7" y="160.7" transform="matrix(0.2588 -0.9659 0.9659 0.2588 -35.6196 522.1088)" class="st0" width="79.4" height="247.1"/>
	<g>
		<path class="st1" d="M270.6,298.1l5.7-21.1l-22.2,13.1l-12.5-22.2l-5.6,20.9l-9.6-2.6l12.1-45.2l19.3,35.3l34.5-20.8l-12.1,45.2
			L270.6,298.1z"/>
	</g>
	<g>
		<path class="st1" d="M293.8,280.5c3.4-12.9,16.3-20.3,31.4-16.2c15.1,4,22.4,16.9,19,29.7c-3.4,12.9-16.2,20.3-31.3,16.3
			C297.8,306.2,290.4,293.4,293.8,280.5z M304.3,283.3c-2.5,9.3,3.1,16.4,10.9,18.5c7.6,2,16-1.3,18.5-10.6
			c2.5-9.3-3-16.5-10.7-18.6C315.2,270.5,306.8,274,304.3,283.3z"/>
		<path class="st1" d="M367.9,276.4L356,321l-9.9-2.7l11.9-44.6L367.9,276.4z"/>
		<path class="st1" d="M384.6,294.2c-2.4,9.1,29.7,10.2,25.1,27.4c-2.4,8.8-13.3,11-23,8.3c-19.8-5.3-20.5-21.2-20.5-21.2l9.8-1.7
			c0,0,0.8,10.6,12.8,13.8c5.2,1.4,9.8,1,10.7-2.1c2.6-9.8-29.4-10.8-25-27.2c2.1-8,11.8-10.9,20.3-8.6c15.5,4.2,17,17.7,17,17.7
			l-9.6,2.6c0,0-0.3-8.9-9.9-11.5C388.2,290.7,385.3,291.7,384.6,294.2z"/>
	</g>
	
		<rect x="29.4" y="135.2" transform="matrix(0.9903 -0.1392 0.1392 0.9903 -22.9753 31.2971)" class="st0" width="365.7" height="89.4"/>
	<g>
		<path class="st1" d="M64.6,207.9c1,6.9,3.9,10.6,9.9,9.7c6.2-0.9,8.1-5.2,7.1-12.1l-3.7-26.4l10.2-1.4l3.7,26.4
			c1.9,13.3-3,21-16,22.8c-12.8,1.8-19.4-4.3-21.2-17.6L64.6,207.9z"/>
		<path class="st1" d="M107,175.1l3.1,22.2c1.1,7.5,4.9,14.7,14.4,13.3c9.5-1.3,11.2-9.3,10.2-16.8l-3.1-22.2l10.2-1.4l3.1,22.2
			c2,13.9-1.8,25.1-19.1,27.5c-17.4,2.4-24-7.2-26-21.2l-3.1-22.2L107,175.1z"/>
		<path class="st1" d="M163.2,180.2c1.3,9.3,31.3-2.2,33.8,15.5c1.3,9.1-7.9,15.3-17.9,16.7c-20.3,2.9-27.2-11.5-27.2-11.5l8.4-5.4
			c0,0,4.9,9.5,17.2,7.7c5.3-0.7,9.4-2.9,9-6.1c-1.4-10-31.3,1.5-33.6-15.3c-1.1-8.2,6.6-14.7,15.3-15.9c15.9-2.2,22.6,9.7,22.6,9.7
			l-7.8,6.2c0,0-3.8-8.1-13.6-6.7C165.2,175.5,162.9,177.6,163.2,180.2z"/>
		<path class="st1" d="M246,164.2l-19.6,2.8l5.2,37.2l-10.2,1.4l-5.2-37.2l-19.6,2.8l-1.2-8.5l49.5-7L246,164.2z"/>
		<path class="st1" d="M261,153.4l6.4,45.7l-10.2,1.4l-6.4-45.7L261,153.4z"/>
		<path class="st1" d="M322,171.8c0,0,2.1,20.2-20.9,23.5c-15.6,2.2-27.1-6.2-29.1-20c-1.9-13.8,7-25,21.9-27.1
			c19.6-2.8,24.1,12.6,24.1,12.6l-7.8,6.4c0,0-2.3-11.7-15.2-9.9c-8.3,1.2-13.5,7.5-12.2,16.5c1.3,8.9,8.3,13.4,16.8,12.2
			c13.1-1.8,12.5-12.8,12.5-12.8L322,171.8z"/>
		<path class="st1" d="M325.4,144.4L364,139l1.2,8.5l-28.4,4l1.3,9.5l25.2-3.5l1.2,8.4l-25.2,3.5l1.5,10.8l29.9-4.2l1.2,8.5
			l-40.1,5.6L325.4,144.4z"/>
	</g>
	
		<rect x="240.8" y="361.6" transform="matrix(0.9659 -0.2588 0.2588 0.9659 -90.7227 123.4795)" class="st0" width="365.7" height="89.4"/>
	<g>
		<path class="st1" d="M262.2,429.5l11.6-3.1l23.4,24.1l8.2-32.6l11.6-3.1l-15.2,52.8L262.2,429.5z"/>
	</g>
	<g>
		<path class="st1" d="M321.8,413.5l37.6-10.1l2.2,8.3l-27.7,7.4l2.5,9.3l24.6-6.6l2.2,8.2l-24.6,6.6l2.8,10.6l29.2-7.8l2.2,8.3
			l-39.1,10.5L321.8,413.5z M348.5,403l-12.4,5.8l-1.7-2.8l9.9-9.8L348.5,403z"/>
		<path class="st1" d="M394.6,418.5l25.5-6.8l5.8,21.7l-8.8,2.4l-2.8-10.3c-0.1,0.6-1.5,12.3-14.5,15.8
			c-10.8,2.9-23.5-1.9-27.6-17.3c-3.6-13.4,3.9-25.7,18.6-29.7c18.8-5,25.2,9.7,25.2,9.7l-7,7.3c0,0-3.9-11.3-16-8
			c-8.5,2.3-12.7,9.2-10.3,17.9c2.5,9.3,10.4,12.8,17.9,10.8c8.7-2.3,10-8.9,10-8.9l-13.8,3.7L394.6,418.5z"/>
		<path class="st1" d="M430.7,432.2l15.2-52.8l39.5,38.1l-11.6,3.1l-5.7-5.9l-23.9,6.4l-2,8L430.7,432.2z M446.7,411.6l14.6-3.9
			l-10.8-11.2L446.7,411.6z"/>
		<path class="st1" d="M490.6,416.1l-12.2-45.4l41.8,17l-6.8-25.4l10-2.7l12.1,45l-41.7-16.5l6.8,25.4L490.6,416.1z"/>
		<path class="st1" d="M532.7,357l37.6-10.1l2.2,8.3l-27.7,7.4l2.5,9.3l24.6-6.6l2.2,8.2l-24.6,6.6l2.8,10.6l29.2-7.8l2.2,8.3
			l-39.1,10.5L532.7,357z"/>
	</g>
	
		<rect x="975.8" y="222.9" transform="matrix(0.1305 -0.9914 0.9914 0.1305 485.0624 1364.5098)" class="st0" width="89.4" height="365.7"/>
	<g>
		<path class="st1" d="M862.4,365.2l11.9,1.6l12.4,31.2l20-27l11.9,1.6l-34.2,42.9L862.4,365.2z"/>
	</g>
	<g>
		<path class="st1" d="M923.7,373.3l38.6,5.1l-1.1,8.5l-28.4-3.7l-1.3,9.5l25.2,3.3l-1.1,8.4l-25.2-3.3l-1.4,10.8l30,3.9l-1.1,8.5
			l-40.2-5.3L923.7,373.3z M952.3,373.7l-13.7,0.6l-0.5-3.2l12.9-5.2L952.3,373.7z"/>
		<path class="st1" d="M989,405.7l26.1,3.4l-2.9,22.3l-9-1.2l1.4-10.5c-0.3,0.5-6,10.8-19.5,9c-11.1-1.5-21-10.7-18.9-26.5
			c1.8-13.8,13.5-22.3,28.6-20.3c19.3,2.5,19.6,18.6,19.6,18.6l-9.2,4.1c0,0,0.7-11.9-11.8-13.5c-8.7-1.1-15.2,3.6-16.4,12.6
			c-1.3,9.5,4.8,15.8,12.4,16.8c8.9,1.2,12.6-4.4,12.6-4.4l-14.1-1.9L989,405.7z"/>
		<path class="st1" d="M1017.1,432.1l34.2-42.9l22,50.3l-11.9-1.6l-3-7.6l-24.5-3.2l-4.9,6.6L1017.1,432.1z M1039.7,419.3l15,2
			l-5.7-14.5L1039.7,419.3z"/>
		<path class="st1" d="M1078.5,440.2l6.1-46.6l32.1,31.7l3.4-26.1l10.2,1.3l-6.1,46.2l-32.3-31.2l-3.4,26L1078.5,440.2z"/>
		<path class="st1" d="M1140.1,401.8l38.6,5.1l-1.1,8.5l-28.4-3.7l-1.3,9.5l25.2,3.3l-1.1,8.4l-25.2-3.3l-1.4,10.8l30,3.9l-1.1,8.5
			l-40.2-5.3L1140.1,401.8z"/>
	</g>
	<polygon class="st0" points="673.4,360.4 700.7,443.4 1077.5,317.8 1050.1,234.8 	"/>
	
		<rect x="306.5" y="-203.8" transform="matrix(0.165 -0.9863 0.9863 0.165 191.7205 430.6028)" class="st0" width="87.4" height="611.8"/>
	<g>
		<path class="st1" d="M62.9,81.1l35.7-41.7l20.2,51.1l-11.8-2l-2.7-7.7l-24.4-4.1l-5.1,6.4L62.9,81.1z M86,69l14.9,2.5l-5.2-14.7
			L86,69z"/>
		<path class="st1" d="M124.1,91.4l7.8-46.4l31,32.8l4.3-26l10.2,1.7l-7.7,46l-31.2-32.3l-4.3,25.9L124.1,91.4z"/>
		<path class="st1" d="M231.3,71.2l-19.6-3.3l-6.2,37.1l-10.2-1.7l6.2-37.1L182,62.9l1.4-8.4l49.3,8.3L231.3,71.2z"/>
		<path class="st1" d="M248.8,65.4l-7.6,45.5l-10.1-1.7l7.6-45.5L248.8,65.4z"/>
		<path class="st1" d="M267.1,81.6c-1.5,9.3,30.5,7.3,27.6,24.9c-1.5,9-12.2,12.2-22.1,10.5c-20.2-3.4-22.5-19.1-22.5-19.1l9.6-2.7
			c0,0,1.8,10.5,14.1,12.5c5.3,0.9,9.9,0,10.4-3.1c1.7-10-30.3-8-27.5-24.7c1.4-8.1,10.7-12,19.4-10.5c15.8,2.6,18.6,16,18.6,16
			l-9.3,3.6c0,0-1.2-8.9-11-10.5C270.4,77.7,267.6,79,267.1,81.6z"/>
	</g>
	<g>
		<path class="st1" d="M312.8,104.4l-3,18l-10.2-1.7l7.6-45.5l25.6,4.3c12.4,2.1,19.1,8.7,17.7,17.2c-1.4,8.3-9.9,12.3-22.3,10.2
			L312.8,104.4z M314.3,96l15.3,2.6c5.7,1,10.3-0.1,10.9-3.7s-3.4-6-9-7l-15.4-2.6L314.3,96z"/>
	</g>
	<g>
		<path class="st1" d="M357.8,83.7l38.4,6.4l-1.4,8.4l-28.2-4.7l-1.6,9.5l25.1,4.2l-1.4,8.4l-25.1-4.2l-1.8,10.8l29.8,5l-1.4,8.4
			l-40-6.7L357.8,83.7z M386.4,85.1l-13.7,0.1l-0.4-3.3l13.1-4.8L386.4,85.1z"/>
		<path class="st1" d="M448.1,125.8c0,0-4.1,19.9-27,16.1c-15.6-2.6-24-14.1-21.7-27.8s14.2-21.8,29-19.3
			c19.6,3.3,19.2,19.3,19.2,19.3l-9.4,3.7c0,0,1.3-11.8-11.5-14c-8.3-1.4-15.1,3.1-16.6,12s3.9,15.3,12.4,16.7
			c13,2.2,15.8-8.4,15.8-8.4L448.1,125.8z"/>
		<path class="st1" d="M469.8,102.4l-7.6,45.5l-10.1-1.7l7.6-45.5L469.8,102.4z"/>
		<path class="st1" d="M488.1,118.6c-1.5,9.3,30.5,7.3,27.6,24.9c-1.5,9-12.2,12.2-22.1,10.5c-20.2-3.4-22.5-19.1-22.5-19.1l9.6-2.7
			c0,0,1.8,10.5,14.1,12.5c5.3,0.9,9.9,0,10.4-3.1c1.7-10-30.3-8-27.5-24.7c1.4-8.1,10.7-12,19.4-10.5c15.8,2.6,18.6,16,18.6,16
			l-9.3,3.6c0,0-1.2-8.9-11-10.5C491.4,114.7,488.5,116,488.1,118.6z"/>
	</g>
	<g>
		<path class="st1" d="M565.8,165.3l3.6-21.6l-20.8,15.2L534.1,138l-3.6,21.3l-9.8-1.6l7.7-46.2l22.6,33.2l32.3-24l-7.7,46.2
			L565.8,165.3z"/>
	</g>
	<g>
		<path class="st1" d="M592.8,123l38.4,6.4l-1.4,8.4l-28.2-4.7l-1.6,9.5l25.1,4.2l-1.4,8.4l-25.1-4.2l-1.8,10.8l29.8,5l-1.4,8.4
			l-40-6.7L592.8,123z"/>
	</g>
	
		<rect x="525.4" y="197.8" transform="matrix(0.2588 -0.9659 0.9659 0.2588 122.237 779.6317)" class="st0" width="87.4" height="224.8"/>
	<g>
		<path class="st1" d="M495.5,270.4l37.6,10.1l-2.2,8.3l-27.6-7.4l-2.5,9.3l24.6,6.6l-2.2,8.1l-24.6-6.6l-5.1,18.9l-10-2.7
			L495.5,270.4z"/>
		<path class="st1" d="M548.5,284.6l-11.9,44.6l-9.9-2.7l11.9-44.6L548.5,284.6z"/>
		<path class="st1" d="M557.7,287l9.9,2.7l-9.7,36.3l26.1,7l-2.2,8.3l-36-9.7L557.7,287z"/>
	</g>
	<g>
		<path class="st1" d="M631.3,354.5l5.7-21.1l-22.2,13.1l-12.5-22.2l-5.6,20.9l-9.6-2.6l12.1-45.2l19.3,35.3l34.5-20.8l-12.1,45.2
			L631.3,354.5z"/>
	</g>
	<g>
		<g>
			<path class="st2" d="M712.4,422.5l10.9-53.4l42.1,34.7l-11.2,4l-6.1-5.4l-23.1,8.2l-1.3,8L712.4,422.5z M726.6,400.9l14.1-5
				l-11.6-10.2L726.6,400.9z"/>
			<path class="st2" d="M770.5,401.9l-15.6-44.1l42.7,13.5l-8.7-24.6l9.7-3.4L814,387l-42.6-13l8.7,24.6L770.5,401.9z"/>
			<path class="st2" d="M817.3,336.8l15.3,43.2l-9.6,3.4l-15.3-43.2L817.3,336.8z"/>
			<path class="st2" d="M884.3,361.6l-7.2-20.5l-10.7,23.2l-22.7-11.1l7.2,20.2l-9.3,3.3L825.9,333l35.7,18l16.5-36.5l15.5,43.8
				L884.3,361.6z"/>
			<path class="st2" d="M898.7,356.6l10.9-53.4l42.1,34.7l-11.2,4l-6.1-5.4l-23.1,8.2l-1.3,8L898.7,356.6z M912.9,334.9l14.1-5
				l-11.6-10.2L912.9,334.9z"/>
			<path class="st2" d="M947.1,290.8l7.4,21c2.5,7.1,7.7,13.3,16.7,10.1c9-3.2,9.1-11.2,6.6-18.4l-7.4-21l9.7-3.4l7.4,21
				c4.7,13.2,3.3,24.8-13.2,30.6c-16.4,5.8-24.8-2.3-29.5-15.5l-7.4-21L947.1,290.8z"/>
			<path class="st2" d="M1019.3,296l-7.7,20.6l-12.2,4.3l11.8-29.1l-26.3-14.3l12.8-4.5l17.1,10.8l6.3-19.1l12.8-4.5L1023,288
				l27.1,15.1l-12.2,4.3L1019.3,296z"/>
		</g>
	</g>
</g>
</svg>
