<svg xmlns="http://www.w3.org/2000/svg" width="119.966" height="72.074" viewBox="0 0 119.966 72.073996"><path d="M62.768 28.067l2.893-2.082c-2.688-2.932-10.104-1.723-10.104-4.438 0-.924.924-1.533 2.394-1.533 3.507 0 4.431 3.023 4.431 3.023l3.044-1.785s-1.764-4.492-7.433-4.492c-3.129 0-6.152 1.889-6.152 4.808 0 5.687 9.884 3.693 10.927 6.499zm-6.895 4.965l3.837-2.762c-.097.003-.19.011-.289.011-4.409 0-5.648-3.549-5.648-3.549l-3.191 1.49c-.001 0 1.103 3.451 5.291 4.81zm-39.685.272h3.506V16.76L9.826 27.027 0 16.76v16.544h3.527v-7.643l6.299 6.424 6.362-6.508v7.727zm31.77-16.314h-3.632v16.314h3.632zM32.02 33.597c5.522 0 9.197-3.716 9.197-8.419s-3.675-8.419-9.197-8.419c-5.521 0-9.238 3.716-9.238 8.419s3.717 8.419 9.238 8.419zm0-13.794c2.814 0 5.354 1.974 5.354 5.375s-2.583 5.312-5.354 5.312c-2.855 0-5.396-1.91-5.396-5.312s2.541-5.375 5.396-5.375zm-3.149 35.259l1.023 11.826-10.592-5.361-3.514 2.375 17.607 8.172-1.012-19.387zm8.547-7.523l.883.746 3.479-3.365-2.178-1.797zm7.138 12.965l-2.164-3.201 7.446-5.031-1.681-2.487-7.445 5.031-1.904-2.818 8.385-5.666-1.693-2.505-11.395 7.699 9.133 13.518 11.865-8.018-1.692-2.504zm14.689-15.88l1.692 2.505 4.176-2.821s.318 2.345-2.309 4.12c-2.262 1.528-5.315 1.285-7.22-1.533-1.786-2.645-1.187-5.432 1.388-7.172 3.688-2.492 6.283.823 6.283.823l1.488-3.235s-3.835-4.176-9.541-.319c-4.453 3.009-5.553 7.983-2.802 12.055 3.15 4.662 7.95 4.79 11.221 2.579 3.966-2.68 3.073-6.738 3.036-6.942l2.104 3.114 2.662-1.799-4.455-6.594zm13.842.251l3.515-2.375-.257-2.893 7.237-4.89 2.588 1.317 3.514-2.375-17.607-8.171zm7.393-11.71l-4.42 2.985-.482-5.477zM95.902 9.769l-3.026 2.045 5.208 7.707-15.927-.844 9.31 13.778 3.01-2.034-5.195-7.689 15.85.693zm22.371.926l-8.855 5.982-2.162-3.201 7.445-5.031-1.681-2.487-7.446 5.03-1.904-2.818 8.386-5.665L110.364 0 98.968 7.699l9.134 13.518 11.864-8.018z" fill="#6400ff"/></svg>