<?xml version="1.0" encoding="UTF-8" standalone="no"?>
<!-- Generator: Adobe Illustrator 16.0.0, SVG Export Plug-In . SVG Version: 6.00 Build 0)  -->

<svg
   xmlns:dc="http://purl.org/dc/elements/1.1/"
   xmlns:cc="http://creativecommons.org/ns#"
   xmlns:rdf="http://www.w3.org/1999/02/22-rdf-syntax-ns#"
   xmlns:svg="http://www.w3.org/2000/svg"
   xmlns="http://www.w3.org/2000/svg"
   xmlns:sodipodi="http://sodipodi.sourceforge.net/DTD/sodipodi-0.dtd"
   xmlns:inkscape="http://www.inkscape.org/namespaces/inkscape"
   version="1.1"
   id="Calque_1"
   x="0px"
   y="0px"
   width="119.966"
   height="72.073997"
   viewBox="0 0 119.966 72.073996"
   enable-background="new 0 0 141.731 113.386"
   xml:space="preserve"
   sodipodi:docname="logo-big.svg"
   inkscape:version="0.92.1 r"><metadata
     id="metadata9"><rdf:RDF><cc:Work
         rdf:about=""><dc:format>image/svg+xml</dc:format><dc:type
           rdf:resource="http://purl.org/dc/dcmitype/StillImage" /><dc:title></dc:title></cc:Work></rdf:RDF></metadata><defs
     id="defs7" /><sodipodi:namedview
     pagecolor="#ffffff"
     bordercolor="#666666"
     borderopacity="1"
     objecttolerance="10"
     gridtolerance="10"
     guidetolerance="10"
     inkscape:pageopacity="0"
     inkscape:pageshadow="2"
     inkscape:window-width="1446"
     inkscape:window-height="937"
     id="namedview5"
     showgrid="false"
     inkscape:zoom="2"
     inkscape:cx="54.576859"
     inkscape:cy="31.093565"
     inkscape:window-x="0"
     inkscape:window-y="54"
     inkscape:window-maximized="0"
     inkscape:current-layer="Calque_1" /><path
     d="m 62.768,28.067 2.893,-2.082 c -2.688,-2.932 -10.104,-1.723 -10.104,-4.438 0,-0.924 0.924,-1.533 2.394,-1.533 3.507,0 4.431,3.023 4.431,3.023 l 3.044,-1.785 c 0,0 -1.764,-4.492 -7.433,-4.492 -3.129,0 -6.152,1.889 -6.152,4.808 0,5.687 9.884,3.693 10.927,6.499 z m -6.895,4.965 3.837,-2.762 c -0.097,0.003 -0.19,0.011 -0.289,0.011 -4.409,0 -5.648,-3.549 -5.648,-3.549 l -3.191,1.49 c -10e-4,0 1.103,3.451 5.291,4.81 z m -39.685,0.272 h 3.506 V 16.76 L 9.826,27.027 0,16.76 v 16.544 h 3.527 v -7.643 l 6.299,6.424 6.362,-6.508 v 7.727 z M 47.958,16.99 h -3.632 v 16.314 h 3.632 z M 32.02,33.597 c 5.522,0 9.197,-3.716 9.197,-8.419 0,-4.703 -3.675,-8.419 -9.197,-8.419 -5.521,0 -9.238,3.716 -9.238,8.419 0,4.703 3.717,8.419 9.238,8.419 z m 0,-13.794 c 2.814,0 5.354,1.974 5.354,5.375 0,3.401 -2.583,5.312 -5.354,5.312 -2.855,0 -5.396,-1.91 -5.396,-5.312 0,-3.402 2.541,-5.375 5.396,-5.375 z m -3.149,35.259 1.023,11.826 -10.592,-5.361 -3.514,2.375 17.607,8.172 -1.012,-19.387 z m 8.547,-7.523 0.883,0.746 3.479,-3.365 -2.178,-1.797 z m 7.138,12.965 -2.164,-3.201 7.446,-5.031 -1.681,-2.487 -7.445,5.031 -1.904,-2.818 8.385,-5.666 -1.693,-2.505 -11.395,7.699 9.133,13.518 11.865,-8.018 -1.692,-2.504 z m 14.689,-15.88 1.692,2.505 4.176,-2.821 c 0,0 0.318,2.345 -2.309,4.12 -2.262,1.528 -5.315,1.285 -7.22,-1.533 -1.786,-2.645 -1.187,-5.432 1.388,-7.172 3.688,-2.492 6.283,0.823 6.283,0.823 l 1.488,-3.235 c 0,0 -3.835,-4.176 -9.541,-0.319 -4.453,3.009 -5.553,7.983 -2.802,12.055 3.15,4.662 7.95,4.79 11.221,2.579 3.966,-2.68 3.073,-6.738 3.036,-6.942 l 2.104,3.114 2.662,-1.799 -4.455,-6.594 z m 13.842,0.251 3.515,-2.375 -0.257,-2.893 7.237,-4.89 2.588,1.317 3.514,-2.375 -17.607,-8.171 z m 7.393,-11.71 -4.42,2.985 -0.482,-5.477 z m 15.422,-23.396 -3.026,2.045 5.208,7.707 -15.927,-0.844 9.31,13.778 3.01,-2.034 -5.195,-7.689 15.85,0.693 z m 22.371,0.926 -8.855,5.982 -2.162,-3.201 7.445,-5.031 -1.681,-2.487 -7.446,5.03 L 103.67,8.17 112.056,2.505 110.364,0 98.968,7.699 l 9.134,13.518 11.864,-8.018 z"
     id="path2"
     inkscape:connector-curvature="0"
     style="fill:#6400ff" /></svg>