<?xml version="1.0" encoding="UTF-8" standalone="no"?>
<!-- Generator: Adobe Illustrator 22.1.0, SVG Export Plug-In . SVG Version: 6.00 Build 0)  -->

<svg
   xmlns:dc="http://purl.org/dc/elements/1.1/"
   xmlns:cc="http://creativecommons.org/ns#"
   xmlns:rdf="http://www.w3.org/1999/02/22-rdf-syntax-ns#"
   xmlns:svg="http://www.w3.org/2000/svg"
   xmlns="http://www.w3.org/2000/svg"
   xmlns:sodipodi="http://sodipodi.sourceforge.net/DTD/sodipodi-0.dtd"
   xmlns:inkscape="http://www.inkscape.org/namespaces/inkscape"
   version="1.1"
   id="Calque_1"
   x="0px"
   y="0px"
   viewBox="0 0 119.9 71.999999"
   xml:space="preserve"
   sodipodi:docname="logo-big.svg"
   width="119.9"
   height="72"
   inkscape:version="0.92.3 (2405546, 2018-03-11)"><metadata
   id="metadata11"><rdf:RDF><cc:Work
       rdf:about=""><dc:format>image/svg+xml</dc:format><dc:type
         rdf:resource="http://purl.org/dc/dcmitype/StillImage" /><dc:title></dc:title></cc:Work></rdf:RDF></metadata><defs
   id="defs9" /><sodipodi:namedview
   pagecolor="#ffffff"
   bordercolor="#666666"
   borderopacity="1"
   objecttolerance="10"
   gridtolerance="10"
   guidetolerance="10"
   inkscape:pageopacity="0"
   inkscape:pageshadow="2"
   inkscape:window-width="1916"
   inkscape:window-height="1040"
   id="namedview7"
   showgrid="false"
   fit-margin-top="0"
   fit-margin-left="0"
   fit-margin-right="0"
   fit-margin-bottom="0"
   inkscape:zoom="4.1622574"
   inkscape:cx="24.863453"
   inkscape:cy="41.983214"
   inkscape:window-x="0"
   inkscape:window-y="18"
   inkscape:window-maximized="0"
   inkscape:current-layer="Calque_1" />
<style
   type="text/css"
   id="style2">
	.st0{fill:#00D2B9;}
</style>
<path
   class="st0"
   d="m 62.8,28 2.9,-2.1 C 63,23 55.6,24.2 55.6,21.5 55.6,20.6 56.5,20 58,20 c 3.5,0 4.4,3 4.4,3 l 3,-1.8 c 0,0 -1.8,-4.5 -7.4,-4.5 -3.1,0 -6.2,1.9 -6.2,4.8 0,5.7 9.9,3.7 11,6.5 z m -6.9,5 3.8,-2.8 c -0.1,0 -0.2,0 -0.3,0 -4.4,0 -5.6,-3.5 -5.6,-3.5 l -3.2,1.5 c 0,0 1.1,3.4 5.3,4.8 z m -39.7,0.3 h 3.5 V 16.7 L 9.8,27 0,16.7 v 16.6 h 3.5 v -7.6 l 6.3,6.4 6.4,-6.5 z M 47.9,16.9 h -3.6 v 16.4 h 3.6 z M 32,33.6 c 5.5,0 9.2,-3.7 9.2,-8.4 0,-4.7 -3.7,-8.4 -9.2,-8.4 -5.5,0 -9.2,3.7 -9.2,8.4 0,4.7 3.7,8.4 9.2,8.4 z m 0,-13.8 c 2.8,0 5.4,2 5.4,5.4 0,3.4 -2.6,5.3 -5.4,5.3 -2.9,0 -5.4,-1.9 -5.4,-5.3 0,-3.4 2.5,-5.4 5.4,-5.4 z m -3.1,35.2 1,11.8 -10.6,-5.4 -3.5,2.4 17.6,8.2 -1,-19.4 z m 8.5,-7.5 0.9,0.7 3.5,-3.4 -2.2,-1.8 z m 7.1,13 -2.1,-3.2 7.4,-5 -1.7,-2.6 -7.4,5 -1.9,-2.8 8.4,-5.7 -1.7,-2.5 -11.4,7.8 9.1,13.5 11.9,-8 -1.7,-2.5 z m 14.7,-15.9 1.7,2.5 4.2,-2.8 c 0,0 0.3,2.3 -2.3,4.1 -2.3,1.5 -5.3,1.3 -7.2,-1.5 -1.8,-2.6 -1.2,-5.4 1.4,-7.2 3.7,-2.5 6.3,0.8 6.3,0.8 l 1.5,-3.2 c 0,0 -3.8,-4.2 -9.5,-0.3 -4.5,3 -5.6,8 -2.8,12.1 3.2,4.7 7.9,4.8 11.2,2.6 4,-2.7 3.1,-6.7 3,-6.9 l 2.1,3.1 2.7,-1.8 -4.5,-6.6 z m 13.9,0.2 3.5,-2.4 -0.3,-2.9 7.2,-4.9 2.6,1.3 3.5,-2.4 -17.5,-8.1 z m 7.4,-11.7 -4.4,3 -0.5,-5.5 z m 15.4,-23.4 -3,2 5.2,7.7 -16,-0.8 9.3,13.8 3,-2 -5.2,-7.7 15.8,0.7 z m 22.4,1 -8.9,6 -2.2,-3.2 7.4,-5 -1.7,-2.5 -7.4,5 -1.9,-2.8 8.4,-5.7 -1.7,-2.5 -11.4,7.7 9.1,13.5 11.9,-8 z"
   id="path4"
   inkscape:connector-curvature="0"
   style="fill:#00d2b9" />
</svg>