<svg xmlns="http://www.w3.org/2000/svg" viewBox="0 0 512.007 512.007"><path d="M511.973 10.687c0-5.891-4.75-10.656-10.656-10.656a10.604 10.604 0 0 0-7.531 3.125l-84.375 84.375c-13.562-28.5-36.875-50.578-69.594-65.828-86.751-40.438-144.813-16.86-178.251 10.047-26.969 21.672-48.781 54.625-61.5 92.812-11.188 33.609-14.375 69.141-8.594 95.047 1.219 5.422 6.406 9.062 11.969 8.234 5.844-.875 9.844-6.312 8.969-12.141-.031-.266-.094-.5-.156-.75-9-40.234 8.156-122.719 62.688-166.594 41.188-33.125 95.094-35.656 155.875-7.328 30.625 14.281 51.531 35.328 62.375 62.719l-27.844 27.828a10.532 10.532 0 0 0-1-3.281c-.031-.109-.125-.266-.188-.375-16.562-33.312-39.906-54.531-69.406-63.094-51.031-14.781-102.031 14.031-107.875 17.469v.016c-.156.094-.281.172-.375.219a10.652 10.652 0 0 0-5.094 9.109c0 5.891 4.781 10.672 10.656 10.672 2.031 0 3.938-.578 5.562-1.562.469-.297 47.062-28.219 91.188-15.438 23.625 6.859 42.625 24.5 56.438 52.438 1.531 3.109 4.531 5.359 8.062 5.844l-56.625 56.641a18.299 18.299 0 0 0-.688-1.188c-9.688-16.359-22.781-26.297-38.875-29.531-29.719-5.969-58.938 13.969-62.906 16.828-.031 0-.031.016-.031 0a1.782 1.782 0 0 1-.281.219 10.644 10.644 0 0 0-4.312 8.562c0 5.906 4.781 10.688 10.656 10.688 2.406 0 4.594-.797 6.375-2.125.219-.172 24.531-17.641 46.281-13.266 10.094 2.031 18.188 8.406 24.75 19.5 1.25 2.125 2.312 4.172 3.188 6.156l-98.812 98.836c-.031-5.469.156-10.531.469-15 0-.25.031-.469.031-.719a10.683 10.683 0 0 0-10.688-10.688c-5.625 0-10.25 4.406-10.625 9.938-.031.719-1.125 17.125.219 37.031L3.16 493.758a10.622 10.622 0 0 0-3.125 7.562c0 5.875 4.781 10.656 10.656 10.656 2.969 0 5.625-1.188 7.562-3.125l90.156-90.188c3.781 40.469 37.844 80.438 80.531 90.75 7.156 1.719 14.312 2.594 21.438 2.594 20.219 0 40-6.938 58.188-20.5 27.688-20.688 50.719-56.031 68.5-105.094 4.875-7.125 29.5-44.062 51.375-93.031 14.125-31.594 24.094-61.586 29.656-89.18 7.094-35.156 7.031-66.609-.188-93.484-.094-.406-.219-.797-.344-1.203l91.281-91.281a10.61 10.61 0 0 0 3.127-7.547zM279.41 247.695c-4.438 8.969-11.812 18.75-21.344 31-7.969 10.219-17 21.812-25.312 35.094-15.781 25.25-18.531 47.562-20.375 62.312-.656 5.281-1.562 12.5-2.812 14.219-.25.094-.938.25-2.438.25-3.844-.031-6.969-1.531-9.875-4.688-7.438-8.031-11.625-24.719-13.656-42.375l95.812-95.812zm89.719 36.625c-23.062 51.719-50.094 90.688-50.375 91.062l-.812 1.188-.469 1.344c-16.406 45.719-37.156 78.188-61.688 96.5-19.312 14.438-40.719 19.375-61.844 14.25-18.406-4.438-36.062-16.531-48.438-33.156-12.062-16.219-17.781-34.844-15.656-51.125.125-.969.125-1.938-.031-2.969a9.803 9.803 0 0 0-1-3.156l36.062-36.062c3.469 17.094 9.031 29.875 16.688 38.156 6.906 7.469 15.656 11.438 25.344 11.562h.375c12.469 0 18.469-6.5 21.344-11.969 3-5.812 3.906-12.969 4.906-21.219 1.719-13.656 4.031-32.375 17.312-53.625 7.719-12.375 16.031-23 24.031-33.281 11.688-15.031 21.812-28 27-42.344 3.312-9.133 4.281-18.117 2.875-27.148l95-95c9.157 51.953-11.155 113.328-30.624 156.992z"/></svg>