<svg xmlns="http://www.w3.org/2000/svg" viewBox="0 0 24 24"><path d="M19.362 0H4.638A4.643 4.643 0 0 0 0 4.638v14.724A4.643 4.643 0 0 0 4.638 24h14.724A4.643 4.643 0 0 0 24 19.362V4.638A4.643 4.643 0 0 0 19.362 0zm1.33 2.766l.53-.002v4.068l-4.054.013-.014-4.067zM8.574 9.536A4.223 4.223 0 0 1 12 7.777a4.22 4.22 0 0 1 3.425 1.76 4.2 4.2 0 0 1 .8 2.464A4.23 4.23 0 0 1 12 16.224 4.229 4.229 0 0 1 7.775 12a4.203 4.203 0 0 1 .8-2.463zm13.087 9.826a2.301 2.301 0 0 1-2.3 2.3H4.639a2.302 2.302 0 0 1-2.3-2.3V9.537h3.583A6.527 6.527 0 0 0 5.437 12 6.57 6.57 0 0 0 12 18.563 6.57 6.57 0 0 0 18.562 12c0-.87-.175-1.702-.484-2.463h3.583z"/></svg>