<?xml version="1.0" encoding="UTF-8" standalone="no"?>
<svg
   xmlns:dc="http://purl.org/dc/elements/1.1/"
   xmlns:cc="http://creativecommons.org/ns#"
   xmlns:rdf="http://www.w3.org/1999/02/22-rdf-syntax-ns#"
   xmlns:svg="http://www.w3.org/2000/svg"
   xmlns="http://www.w3.org/2000/svg"
   xmlns:sodipodi="http://sodipodi.sourceforge.net/DTD/sodipodi-0.dtd"
   xmlns:inkscape="http://www.inkscape.org/namespaces/inkscape"
   height="187.233"
   width="187.165"
   version="1.1"
   id="svg887"
   sodipodi:docname="logo-pea.svg"
   inkscape:version="0.92.3 (2405546, 2018-03-11)">
  <metadata
     id="metadata893">
    <rdf:RDF>
      <cc:Work
         rdf:about="">
        <dc:format>image/svg+xml</dc:format>
        <dc:type
           rdf:resource="http://purl.org/dc/dcmitype/StillImage" />
      </cc:Work>
    </rdf:RDF>
  </metadata>
  <defs
     id="defs891" />
  <sodipodi:namedview
     pagecolor="#ffffff"
     bordercolor="#666666"
     borderopacity="1"
     objecttolerance="10"
     gridtolerance="10"
     guidetolerance="10"
     inkscape:pageopacity="0"
     inkscape:pageshadow="2"
     inkscape:window-width="1916"
     inkscape:window-height="1040"
     id="namedview889"
     showgrid="false"
     inkscape:zoom="4.5558208"
     inkscape:cx="93.582497"
     inkscape:cy="93.616501"
     inkscape:window-x="0"
     inkscape:window-y="18"
     inkscape:window-maximized="0"
     inkscape:current-layer="svg887" />
  <path
     d="M41.5 168.26c-.414.6-.268 1.427.346 1.853.226.16.493.227.746.227.427 0 .84-.2 1.094-.573.426-.6.266-1.427-.334-1.84-.6-.427-1.426-.267-1.853.333M48.032 170.927a1.333 1.333 0 1 0-.68 2.48c.454 0 .894-.24 1.134-.654a1.338 1.338 0 0 0-.454-1.826M52.899 173.62a1.33 1.33 0 0 0-1.2 2.373c.186.094.4.134.6.134.48 0 .946-.254 1.186-.72a1.33 1.33 0 0 0-.586-1.787M32.78 161.087a1.33 1.33 0 0 0 .092 1.88c.254.226.574.346.894.346.36 0 .72-.146.973-.426a1.317 1.317 0 0 0-.08-1.88 1.317 1.317 0 0 0-1.88.08M37.02 164.82a1.332 1.332 0 0 0 .213 1.866c.253.2.533.294.826.294.387 0 .774-.174 1.04-.507a1.32 1.32 0 0 0-.213-1.867 1.332 1.332 0 0 0-1.867.214M57.94 175.967a1.342 1.342 0 0 0-1.747.707c-.28.68.026 1.453.706 1.746.174.067.347.107.52.107.52 0 1.014-.307 1.227-.813a1.338 1.338 0 0 0-.707-1.747M79.326 181.833a1.326 1.326 0 0 0-1.493 1.147c-.107.72.413 1.4 1.133 1.493.067 0 .12.014.187.014.653 0 1.226-.494 1.306-1.16.107-.72-.413-1.387-1.133-1.494M73.845 180.913a1.336 1.336 0 0 0-1.573 1.04c-.147.72.32 1.427 1.04 1.574.093.013.173.026.267.026a1.35 1.35 0 0 0 1.306-1.066 1.336 1.336 0 0 0-1.04-1.574M68.433 179.634a1.31 1.31 0 0 0-1.627.92c-.2.72.213 1.44.933 1.64.12.026.227.053.347.053.587 0 1.12-.4 1.28-.987.2-.706-.213-1.44-.933-1.626M84.86 182.393a1.331 1.331 0 0 0-1.428 1.227 1.35 1.35 0 0 0 1.24 1.427v-.014a.26.26 0 0 0 .094.014c.693 0 1.28-.547 1.32-1.24a1.319 1.319 0 0 0-1.227-1.414M63.125 177.98c-.693-.24-1.44.12-1.68.813-.253.694.12 1.454.814 1.694.146.053.293.08.44.08.546 0 1.053-.347 1.253-.894a1.335 1.335 0 0 0-.827-1.693M12.966 129.14a1.333 1.333 0 0 0-1.707-.773 1.33 1.33 0 0 0 .934 2.493 1.325 1.325 0 0 0 .773-1.72M15.112 134.26a1.327 1.327 0 1 0-2.413 1.107c.213.493.707.786 1.2.786.187 0 .373-.04.56-.133.667-.293.96-1.093.653-1.76M28.792 157.087a1.34 1.34 0 0 0-.04 1.88 1.353 1.353 0 0 0 1.88.04 1.328 1.328 0 1 0-1.84-1.92M9.74 118.527c-.16-.72-.88-1.16-1.587-1a1.34 1.34 0 0 0-1 1.6 1.335 1.335 0 0 0 1.293 1.026c.107 0 .2-.013.307-.04.706-.16 1.16-.866.986-1.586M11.179 123.9v-.013a1.34 1.34 0 0 0-1.667-.88 1.332 1.332 0 0 0-.88 1.653 1.32 1.32 0 0 0 1.267.947 1.33 1.33 0 0 0 1.28-1.707M25.086 152.82a1.33 1.33 0 0 0-.16 1.866v.014c.266.306.64.466 1.026.466.294 0 .6-.093.84-.306.574-.48.64-1.307.174-1.88a1.344 1.344 0 0 0-1.88-.16M21.672 148.327a1.322 1.322 0 0 0-.28 1.853c.254.36.654.547 1.067.547.28 0 .547-.08.787-.253.586-.44.72-1.267.293-1.867a1.338 1.338 0 0 0-1.867-.28M18.58 143.607a1.325 1.325 0 0 0-.414 1.84c.253.4.68.613 1.12.613.24 0 .493-.067.707-.2.626-.4.813-1.227.413-1.84a1.333 1.333 0 0 0-1.827-.413M15.792 138.7c-.64.347-.88 1.16-.533 1.8a1.33 1.33 0 0 0 1.8.533c.653-.346.893-1.16.533-1.8a1.311 1.311 0 0 0-1.8-.533M137.419 167.913c-.6.427-.76 1.254-.333 1.854a1.313 1.313 0 0 0 1.84.333c.613-.413.76-1.24.346-1.84a1.333 1.333 0 0 0-1.853-.347M167.433 133.593a1.327 1.327 0 1 0-.547 2.534c.507 0 .987-.28 1.2-.774a1.327 1.327 0 0 0-.653-1.76M164.993 138.687a1.33 1.33 0 0 0-1.8.533c-.36.654-.12 1.454.533 1.814.2.106.413.16.627.16.466 0 .933-.254 1.173-.707a1.334 1.334 0 0 0-.533-1.8M162.205 143.607a1.348 1.348 0 0 0-1.84.413c-.386.627-.2 1.44.414 1.84.226.133.466.2.72.2.44 0 .866-.213 1.12-.613.386-.627.2-1.44-.414-1.84M157.246 148.62a1.324 1.324 0 0 0 .28 1.853 1.357 1.357 0 0 0 1.867-.28v-.013a1.338 1.338 0 0 0-.294-1.853 1.324 1.324 0 0 0-1.853.293M153.806 152.994c-.467.56-.4 1.4.173 1.866.24.214.547.32.853.32.374 0 .747-.16 1.014-.48.466-.56.4-1.4-.16-1.866-.56-.48-1.4-.4-1.88.16M150.1 157.126a1.328 1.328 0 0 0 .946 2.254c.36 0 .707-.134.96-.414a1.328 1.328 0 0 0-.027-1.88 1.328 1.328 0 0 0-1.88.04M172.633 117.486a1.34 1.34 0 0 0-1.6 1 1.32 1.32 0 0 0 1 1.587c.106.027.2.04.293.04.613 0 1.16-.413 1.307-1.027.16-.72-.28-1.44-1-1.6M169.526 128.34a1.31 1.31 0 0 0-1.707.773 1.31 1.31 0 0 0 .773 1.707c.147.067.307.093.467.093a1.34 1.34 0 0 0 1.24-.853 1.325 1.325 0 0 0-.773-1.72M171.259 122.967a1.332 1.332 0 0 0-1.654.88 1.338 1.338 0 0 0 .894 1.667 1.34 1.34 0 0 0 1.653-.893 1.33 1.33 0 0 0-.893-1.654M101.485 181.833c-.72.094-1.226.774-1.133 1.494.093.666.667 1.16 1.32 1.16.053 0 .12-.014.173-.014a1.341 1.341 0 0 0 1.147-1.493 1.346 1.346 0 0 0-1.507-1.147M112.38 179.62c-.707.2-1.12.933-.934 1.64.16.587.693.973 1.28.973.12 0 .24-.013.36-.053a1.31 1.31 0 0 0 .92-1.627 1.318 1.318 0 0 0-1.627-.933M106.966 180.913c-.72.147-1.173.84-1.027 1.56.12.64.68 1.067 1.294 1.067.093 0 .173 0 .266-.027a1.322 1.322 0 0 0 1.04-1.56 1.33 1.33 0 0 0-1.573-1.04M90.406 182.567c-.733 0-1.32.6-1.32 1.333a1.317 1.317 0 0 0 1.32 1.333c.733 0 1.333-.6 1.333-1.333s-.6-1.333-1.333-1.333M95.966 182.393a1.32 1.32 0 0 0-1.24 1.414c.053.706.627 1.24 1.32 1.24h.093a1.34 1.34 0 0 0 1.24-1.427 1.327 1.327 0 0 0-1.413-1.227M117.686 177.967c-.693.24-1.067 1-.827 1.693.2.547.707.894 1.267.894.133 0 .28-.027.427-.08.693-.24 1.066-1 .826-1.694a1.333 1.333 0 0 0-1.693-.813M127.886 173.607a1.33 1.33 0 0 0 .6 2.52c.2 0 .413-.054.6-.147a1.33 1.33 0 0 0-1.2-2.373M141.886 164.607a1.309 1.309 0 0 0-.214 1.866c.254.334.64.507 1.04.507a1.335 1.335 0 0 0 1.04-2.16 1.334 1.334 0 0 0-1.866-.213M122.86 175.967a1.323 1.323 0 0 0-.708 1.733c.214.507.707.814 1.227.814.173 0 .347-.04.52-.107.68-.293.987-1.067.707-1.747a1.325 1.325 0 0 0-1.747-.693M132.74 170.927h.013a1.315 1.315 0 0 0-.467 1.813c.253.427.693.653 1.147.653.226 0 .466-.053.68-.186a1.335 1.335 0 0 0 .453-1.827 1.335 1.335 0 0 0-1.827-.453M146.112 161.007a1.33 1.33 0 0 0-.093 1.88c.267.28.627.426.987.426.32 0 .64-.106.893-.346a1.33 1.33 0 0 0 .093-1.88 1.34 1.34 0 0 0-1.88-.08M5.792 90.663c-2.684-.138-4.668 1.435-4.793 3.864-.083 1.62.662 2.902 1.752 3.948l5.744.296c.909-.893 1.63-2.074 1.713-3.668.127-2.48-1.785-4.278-4.416-4.44m8.861 11.216l.096-1.848-13.818-.71-.096 1.846-.835-.042.143-2.759 1.745.09C.824 97.437.081 96.106.167 94.435c.146-2.835 2.485-4.896 5.674-4.732 3.036.156 5.359 2.381 5.2 5.47-.073 1.417-.749 2.726-1.66 3.645l5.416.278.104-2.025.836.043-.248 4.81zM8.85 75.6c-2.56-.617-4.897.642-5.495 3.128-.595 2.463.904 4.674 3.464 5.291 2.584.624 4.901-.667 5.496-3.128.6-2.485-.88-4.667-3.464-5.29m-2.264 9.38c-2.954-.714-4.77-3.445-4.044-6.449.734-3.052 3.56-4.61 6.54-3.892 2.953.712 4.776 3.42 4.044 6.447-.731 3.028-3.562 4.612-6.54 3.893M14.967 70.256c-.691.053-1.412-.13-2.198-.483l-5.716-2.552L6.3 68.91l-.763-.341 1.136-2.544 6.384 2.852c.65.29 1.246.445 1.755.423.801-.058 1.428-.527 1.852-1.475.63-1.412.17-3.116-.541-4.627L10.06 60.49l-.742 1.666-.766-.342 1.128-2.521 8.86 3.959.754-1.69.764.342-1.127 2.521-2.036-.91c.741 1.386 1.175 3.273.503 4.777-.58 1.296-1.45 1.877-2.432 1.965M17.636 47.759c.382.249.521.733.244 1.157a.909.909 0 0 1-1.186.287c-.4.889-.048 2.298.618 3.55l5.368 3.506 1.136-1.742.7.459-2.66 4.073-.7-.457 1.01-1.55-7.426-4.847-1.01 1.548-.7-.456 1.495-2.292 1.973 1.288c-.737-1.42-.986-3.126-.39-4.04.444-.678 1.082-.775 1.528-.484M31.838 44.515l1.38-1.377-11.872-11.915-1.383 1.376-.59-.59 2.046-2.04 12.464 12.507 1.419-1.413.589.592-3.464 3.452zM30.51 30.379c.338-1.533.005-2.805-.56-3.523-.478.334-1.12.275-1.462-.133a1.018 1.018 0 0 1 .132-1.427c.468-.39 1.216-.32 1.8.382.905 1.09 1.255 2.974.543 4.85zM40.34 30.197l6.467-4.232c-1.279-1.768-3.283-2.516-5.319-1.184-1.694 1.111-2.233 3.34-1.148 5.416m.422.692c1.696 2.404 4.04 2.747 6.266 1.29 1.186-.776 1.878-1.804 2.407-3.03l.464.848c-.475 1.127-1.355 2.188-2.499 2.938-2.693 1.762-5.696 1.153-7.512-1.624-1.637-2.502-1.232-5.675 1.206-7.271 2.524-1.65 5.214-.595 6.628 1.568.14.212.229.395.269.55zm-1.94-8.238l1.256-3.819c.109-.344.236-.61.449-.748.296-.195.739-.12.975.24.152.233.065.653-.186 1.06l-2.094 3.46zM53.017 23.315c.995 2.357 3.327 3.517 5.59 2.562 1.541-.65 2.373-1.936 2.826-3.337l-2.157-5.11c-1.175-.44-2.593-.61-4.087.02-2.333.985-3.156 3.531-2.172 5.865m10.608 2.012c.492 1.166.564 2.18.279 3.07-.4 1.268-1.505 2.23-3.045 2.88-1.54.65-2.844.623-3.627.266-.399-.162-.687-.452-.813-.756-.227-.536-.002-1.044.465-1.242.396-.166.815.042.983.438a.964.964 0 0 1-.066.825c.452.223 1.496.221 2.826-.34 1.213-.512 2.08-1.263 2.408-2.308.202-.69.15-1.465-.243-2.4l-.995-2.356c-.47 1.297-1.31 2.56-2.921 3.24-2.637 1.112-5.553-.132-6.735-2.932-1.133-2.683-.148-5.82 2.746-7.041 1.4-.591 2.88-.474 4.088-.022l-.542-1.282 2.52-1.064.324.77-1.678.71zM74.7 19.12l-.482-2.151c-1.006-.086-2.244-.042-3.356.208-2.026.456-2.728 1.729-2.456 2.94.263 1.162 1.336 2.012 3.14 1.606 1.459-.328 2.512-1.421 3.155-2.604m-7.196 1.254c-.417-1.855.91-3.451 3.136-3.951 1.187-.267 2.612-.275 3.421-.145l-.422-1.88c-.144-.642-.44-1.147-.88-1.49-.591-.437-1.491-.625-2.628-.37-1.186.268-1.791.818-2.096 1.302.18.115.336.34.397.612a.762.762 0 0 1-.576.908c-.495.11-.873-.193-.979-.662-.217-.964.827-2.446 3.15-2.967 1.36-.305 2.512-.15 3.29.43.587.413.99 1.049 1.179 1.89l1.453 6.476 1.78-.4.184.816-2.644.593-.35-1.556c-.635 1.103-1.811 2.224-3.32 2.563-2.175.49-3.73-.537-4.095-2.17M80.752 19.839l1.942-.172L81.21 2.915l-1.943.173-.074-.833L82.068 2l1.56 17.584 1.992-.177.074.832-4.868.432zM90.843 5.111c.008-.532.42-.956.926-.948.507.008.906.446.898.978-.01.506-.42.93-.927.922-.507-.008-.905-.445-.897-.952m-1.546 14.164l1.976.031.143-8.864-1.976-.032.013-.836 2.914.047-.158 9.701 1.978.032-.015.836-4.888-.079zM99.368 19.639c-.128-.399-.15-.836-.086-1.339l.927-7.336-1.91-.241.105-.83 1.909.242.353-2.79.97-.209-.394 3.116 3.368.425-.104.83-3.368-.426-.913 7.236c-.052.403-.04.711.052 1.003.165.505.563.785 1.241.872.655.083 1.315-.09 1.99-.388l-.268.91c-.54.24-1.178.44-2.032.331-.98-.124-1.584-.608-1.84-1.406M114.01 10.05l3.694-1.59c.328-.145.612-.225.856-.158.343.093.58.473.467.889-.075.27-.447.481-.918.564l-3.98.721zm-4.647 6.134l7.452 2.042c.477-2.128-.29-4.124-2.635-4.767-1.955-.536-3.983.537-4.817 2.725m-.24.775c-.679 2.861.617 4.844 3.182 5.548 1.368.375 2.595.21 3.864-.203l-.328.91c-1.157.392-2.534.433-3.854.072-3.104-.85-4.636-3.503-3.759-6.703.79-2.884 3.436-4.68 6.247-3.91 2.906.795 3.897 3.51 3.214 6.002a1.968 1.968 0 0 1-.234.567zM134.062 30.177l1.117-1.902c-.676-.75-1.61-1.562-2.592-2.14-1.792-1.053-3.175-.601-3.804.47-.604 1.026-.4 2.38 1.195 3.318 1.289.758 2.805.678 4.084.254m-6.114-4.003c.964-1.639 3.026-1.897 4.992-.743 1.048.618 2.096 1.586 2.598 2.232l.976-1.66c.334-.568.464-1.138.376-1.69-.134-.724-.662-1.475-1.667-2.066-1.05-.617-1.865-.626-2.42-.482.053.208.012.478-.13.718a.762.762 0 0 1-1.04.27c-.437-.256-.506-.738-.263-1.154.5-.852 2.276-1.22 4.33-.013 1.202.705 1.936 1.608 2.11 2.563.145.702.004 1.442-.432 2.185l-3.364 5.725 1.574.924-.425.722-2.337-1.374.809-1.377c-1.217.372-2.844.388-4.176-.396-1.924-1.13-2.359-2.943-1.51-4.384M145.41 30.965c1.527-.259 3.425-.096 4.673.977 1.057.91 1.365 1.91 1.185 2.858-.13.657-.528 1.352-1.09 2.004l-4.08 4.744 1.402 1.206-.545.634-3.495-3.007.544-.635 1.383 1.19 3.998-4.647c.463-.539.786-1.03.91-1.524.21-.788-.063-1.557-.87-2.252-1.172-1.007-2.925-1.145-4.538-.861l-4.378 5.089 1.383 1.19-.545.633-3.495-3.007.544-.633 1.403 1.205 5.782-6.721-1.402-1.207.545-.633 2.075 1.784zM161.386 37.145c.402-.348.993-.324 1.325.06.332.384.27.972-.13 1.32-.385.332-.975.307-1.307-.076-.332-.384-.27-.972.112-1.304m-11.594 8.29l1.292 1.494 6.708-5.804-1.293-1.494.633-.547 1.906 2.204-7.34 6.35 1.293 1.495-.632.547-3.2-3.699zM155.47 51.527l.926 1.602 7.676-4.436-.926-1.602.724-.418 1.368 2.368-1.84 1.065c1.511.237 3.236.996 4.036 2.377.66 1.142.651 2.14.155 2.954a4.419 4.419 0 0 1-.668.766c1.723.35 3.327 1.15 4.075 2.443.734 1.272.648 2.288.03 3.143-.365.532-.928.974-1.608 1.368L164 66.287l.926 1.602-.724.417-2.308-3.99.724-.42.914 1.58 5.306-3.067c.615-.355 1.068-.735 1.331-1.09.515-.68.537-1.452.017-2.35-.722-1.25-2.249-1.919-3.905-2.25l-5.855 3.384.926 1.6-.724.42-2.307-3.993.724-.417.912 1.578 5.308-3.068c.592-.34 1.059-.698 1.343-1.068.514-.678.536-1.45.016-2.35-.747-1.294-2.319-1.936-3.926-2.236l-5.833 3.37.912 1.58-.724.418-2.307-3.992zM169.482 77.447l2.103-.661c.001-1.01-.147-2.239-.49-3.327-.624-1.982-1.952-2.573-3.137-2.2-1.135.358-1.892 1.499-1.337 3.264.45 1.426 1.628 2.383 2.861 2.924m-1.853-7.066c1.813-.572 3.516.62 4.201 2.794.364 1.16.493 2.58.432 3.398l1.836-.579c.63-.197 1.107-.535 1.412-1.001.388-.628.499-1.539.148-2.651-.365-1.16-.965-1.715-1.473-1.98-.1.19-.31.363-.576.447a.76.76 0 0 1-.954-.498c-.152-.482.12-.886.578-1.03.944-.298 2.506.618 3.221 2.889.419 1.33.36 2.492-.152 3.316-.361.62-.963 1.073-1.785 1.332l-6.332 1.995.548 1.74-.798.25-.814-2.585 1.522-.48c-1.152-.54-2.368-1.619-2.833-3.093-.67-2.127.224-3.763 1.819-4.264M169.271 83.53l.334 1.922 16.576-2.876-.334-1.923.824-.142.494 2.845-17.4 3.02.342 1.972-.822.144-.838-4.819zM175.82 92.762l.285 7.72c2.173-.182 3.846-1.512 3.756-3.94-.074-2.026-1.706-3.638-4.042-3.78m-.81.004c-2.934.211-4.438 2.04-4.338 4.698.052 1.417.575 2.538 1.35 3.625l-.964-.04c-.72-.987-1.175-2.288-1.226-3.655-.118-3.214 1.952-5.47 5.268-5.593 2.986-.11 5.492 1.875 5.6 4.785.112 3.012-2.181 4.77-4.761 4.866a2.05 2.05 0 0 1-.61-.054zM154.714 100.803c0 35.524-28.799 64.32-64.323 64.32-35.525 0-64.32-28.796-64.32-64.32 0-35.526 28.795-64.328 64.32-64.328 35.524 0 64.323 28.802 64.323 64.328"
     fill="#0075ba"
     id="path879"
     style="fill:#0075ba;fill-opacity:1" />
  <path
     d="M128.632 76.772c-3.35-2.418-9.177-3.134-13.017-1.084-3.751 2-8.612 5.11-10.89 2.34-1.628-1.98-2.777-6.007-7-7.007.944 1.5.944 2.444.944 2.444s-7.026-5.916-11.972-4.528c1.39.945 2.418 1.861 2.782 3.104 0 0-4.355-2.901-8.05-.921 0 0 2.352.984 2.768 2.568 0 0-2.75.249-6.082 2.416-4.814 3.128-6.667 2.558-13-.527-4.334-2.112-8.752-1.725-12.96 1.195-4.04 2.805-6.69 5.966-6.69 5.966 3.51 7.527 9.15 9.366 15.059 9.172 9.908-.742 14.323-7.368 20.1.218 8.323-7.6 17.05 0 11.216 9.496-5.437 8.853-11.041 13.268-11.67 13.568-.373.18-2.915-1.506-5.72-3.743 4.069 12.547 1.771 16.525 4.825 22.09 2.884 5.26 10.226 5.103 11.117 5.067.89.036 8.235.192 11.117-5.066 3.076-5.606.13-8.678 4.907-22.54 5.815-16.876 2.508-21.935 2.508-21.935s18.981 9.58 26.396-6.327c0 0-3.212-3.458-6.688-5.966"
     fill="#fff"
     id="path881" />
  <path
     d="M90.487 122.361h-.342c-1.801 6.37-8.518 5.508-8.518 5.508.31 9.063 7.498 6.731 8.688 6.318 1.19.413 8.374 2.745 8.693-6.318 0 0-6.719.862-8.521-5.508M101.327 97.554c-.18.308-.292.663-.292 1.045 0 1.151.935 2.083 2.087 2.083a2.08 2.08 0 0 0 2.08-2.083c0-.349-.09-.672-.241-.96-1.451-1.137-2.795-.654-3.634-.085"
     fill="#0075ba"
     id="path883" />
  <path
     d="M75.994 97.554c-.18.308-.292.663-.292 1.045 0 1.151.935 2.083 2.087 2.083a2.08 2.08 0 0 0 2.08-2.083c0-.349-.091-.672-.242-.96-1.45-1.137-2.794-.654-3.633-.085"
     fill="#fff"
     id="path885" />
</svg>
