<svg xmlns="http://www.w3.org/2000/svg" viewBox="0 0 512 512"><path d="M460.405 449.736l-33.389-133.562c-5.589-22.331-25.571-37.817-48.591-37.817h-83.474v-94.715c0-37.444-39.58-61.224-72.484-44.8l-66.779 33.389c-17.076 8.538-27.573 25.704-27.573 44.8V247.9c-21.224 10.392-39.533 25.976-53.175 45.589-16.252 23.364-24.843 50.807-24.843 79.36 0 76.712 62.411 139.123 139.123 139.123 74.848 0 136.07-59.417 139.002-133.558h11.098l23.905 95.634c6.771 27.029 34.053 43.144 60.738 36.431 26.783-6.689 43.131-33.935 36.442-60.743zM170.62 202.095l66.768-33.383c4.557-2.274 9.802-2.285 14.252-.316h.001c5.942 2.627 10.034 8.6 10.034 15.246v70.302c-10.282-6.257-21.589-11.232-33.501-14.686v-1.586c0-9.22-7.475-16.695-16.695-16.695s-16.583 7.475-16.583 16.695V317.2c0 9.206-7.601 16.695-16.806 16.695-9.205 0-16.695-7.489-16.695-16.695V217.032h-.001c-.001-6.368 3.535-12.09 9.226-14.937zm18.6 276.488c-58.301 0-105.733-47.432-105.733-105.733 0-35.076 16.991-66.807 44.628-86.291V317.2c0 27.616 22.356 50.084 49.973 50.084s50.084-22.468 50.084-50.084v-42.68a105.264 105.264 0 0 1 37.801 25.575c.203.22.402.442.617.651a105.947 105.947 0 0 1 3.792 4.277c.223.293.451.579.692.856 15.005 18.362 23.88 41.769 23.88 66.969 0 58.303-47.431 105.735-105.734 105.735zm226.626-.49c-8.788 2.208-17.948-3.044-20.23-12.15l-27.063-108.271c-1.858-7.432-8.535-12.534-16.196-12.534h-26.804c-2.377-11.7-6.229-23.013-11.366-33.501h64.238c7.675 0 14.336 5.2 16.198 12.64l33.388 133.551c2.232 8.94-3.213 18.029-12.165 20.265z"/><path d="M261.562 0c-36.822 0-66.779 29.957-66.779 66.779 0 36.822 29.957 66.779 66.779 66.779s66.779-29.957 66.779-66.779C328.341 29.957 298.384 0 261.562 0zm0 100.168c-18.411 0-33.39-14.979-33.39-33.389s14.979-33.39 33.39-33.39 33.389 14.979 33.389 33.39-14.978 33.389-33.389 33.389z"/></svg>